# Blender v3.1.2 OBJ File: 'tank.blend'
# www.blender.org
o Cube.005
v -0.495519 1.191920 0.652167
v -0.495519 1.676220 0.652167
v -0.495519 1.191920 -0.542338
v -0.495519 1.676220 -0.542338
v 0.527867 1.191920 0.652167
v 0.527867 1.676220 0.652167
v 0.527867 1.191920 -0.542338
v 0.527867 1.676220 -0.542338
v -0.414017 1.790422 0.557037
v -0.414017 1.790421 -0.447209
v 0.446366 1.790421 -0.447209
v 0.446366 1.790422 0.557037
v 0.499931 1.409737 -0.069531
v 2.570711 1.409737 -0.069531
v 0.499931 1.393639 -0.067946
v 2.570711 1.393640 -0.067946
v 0.499931 1.378161 -0.063250
v 2.570711 1.378161 -0.063250
v 0.499931 1.363895 -0.055625
v 2.570711 1.363895 -0.055625
v 0.499931 1.351392 -0.045364
v 2.570711 1.351392 -0.045364
v 0.499931 1.341130 -0.032860
v 2.570711 1.341130 -0.032860
v 0.499931 1.333505 -0.018595
v 2.570711 1.333505 -0.018595
v 0.499931 1.328810 -0.003116
v 2.570711 1.328810 -0.003116
v 0.499931 1.327224 0.012981
v 2.570711 1.327224 0.012981
v 0.499931 1.328810 0.029079
v 2.570711 1.328810 0.029079
v 0.499931 1.333505 0.044558
v 2.570711 1.333505 0.044558
v 0.499931 1.341130 0.058823
v 2.570711 1.341130 0.058823
v 0.499931 1.351392 0.071327
v 2.570711 1.351392 0.071327
v 0.499931 1.363895 0.081588
v 2.570711 1.363895 0.081588
v 0.499931 1.378161 0.089213
v 2.570711 1.378161 0.089213
v 0.499931 1.393639 0.093909
v 2.570711 1.393640 0.093909
v 0.499931 1.409737 0.095494
v 2.570711 1.409737 0.095494
v 0.499931 1.425834 0.093909
v 2.570711 1.425834 0.093909
v 0.499931 1.441313 0.089213
v 2.570711 1.441313 0.089213
v 0.499931 1.455578 0.081588
v 2.570711 1.455578 0.081588
v 0.499931 1.468082 0.071327
v 2.570711 1.468082 0.071327
v 0.499931 1.478343 0.058823
v 2.570711 1.478344 0.058823
v 0.499931 1.485968 0.044558
v 2.570711 1.485969 0.044558
v 0.499931 1.490664 0.029079
v 2.570711 1.490664 0.029079
v 0.499931 1.492249 0.012981
v 2.570711 1.492249 0.012981
v 0.499931 1.490664 -0.003116
v 2.570711 1.490664 -0.003116
v 0.499931 1.485968 -0.018595
v 2.570711 1.485969 -0.018595
v 0.499931 1.478343 -0.032860
v 2.570711 1.478344 -0.032860
v 0.499931 1.468082 -0.045364
v 2.570711 1.468082 -0.045364
v 0.499931 1.455578 -0.055625
v 2.570711 1.455578 -0.055625
v 0.499931 1.441313 -0.063250
v 2.570711 1.441313 -0.063250
v 0.499931 1.425834 -0.067946
v 2.570711 1.425834 -0.067946
vt 0.170297 0.813830
vt 0.129079 0.915492
vt 0.129079 0.813830
vt 0.446520 0.813830
vt 0.405302 0.900928
vt 0.405302 0.813830
vt 0.395582 0.813830
vt 0.354365 0.915492
vt 0.354365 0.813830
vt 0.098323 0.899299
vt 0.057105 0.986397
vt 0.057105 0.899299
vt 0.271247 0.808993
vt 0.184149 0.910655
vt 0.184149 0.808993
vt 0.180016 0.907395
vt 0.170297 0.915492
vt 0.129079 0.813830
vt 0.057105 0.899299
vt 0.057105 0.813830
vt 0.108042 0.979461
vt 0.098323 0.986397
vt 0.456239 0.893992
vt 0.446520 0.900928
vt 0.405302 0.907395
vt 0.395582 0.915492
vt 0.767350 0.008947
vt 0.764969 0.319725
vt 0.764970 0.008947
vt 0.762727 0.008947
vt 0.762727 0.319725
vt 0.760708 0.008947
vt 0.760708 0.319725
vt 0.758992 0.008947
vt 0.793848 0.319725
vt 0.791830 0.008947
vt 0.793848 0.008947
vt 0.791830 0.319725
vt 0.789587 0.008947
vt 0.789587 0.319725
vt 0.787206 0.008947
vt 0.787206 0.319725
vt 0.784779 0.008947
vt 0.784779 0.319725
vt 0.782398 0.008947
vt 0.782398 0.319725
vt 0.780155 0.008947
vt 0.780155 0.319725
vt 0.778137 0.008947
vt 0.778137 0.319725
vt 0.776420 0.008947
vt 0.793848 0.008947
vt 0.795867 0.319725
vt 0.793848 0.319725
vt 0.795867 0.008947
vt 0.798110 0.319725
vt 0.798110 0.008947
vt 0.800491 0.319725
vt 0.802918 0.008947
vt 0.802918 0.319725
vt 0.805299 0.319725
vt 0.805299 0.008947
vt 0.807542 0.319725
vt 0.807542 0.008947
vt 0.809560 0.319725
vt 0.809560 0.008947
vt 0.811277 0.319725
vt 0.811277 0.009357
vt 0.813153 0.317965
vt 0.811277 0.318139
vt 0.813153 0.009183
vt 0.815294 0.317835
vt 0.817617 0.008974
vt 0.817617 0.317755
vt 0.820033 0.317729
vt 0.820033 0.008947
vt 0.822449 0.317755
vt 0.822449 0.008974
vt 0.824772 0.317835
vt 0.824772 0.009053
vt 0.826913 0.317965
vt 0.826913 0.009183
vt 0.828789 0.318139
vt 0.776420 0.319725
vt 0.774402 0.008947
vt 0.776420 0.008947
vt 0.774402 0.319725
vt 0.772159 0.008947
vt 0.876416 0.102508
vt 0.889954 0.113618
vt 0.878844 0.127155
vt 0.772159 0.319725
vt 0.769778 0.008947
vt 0.769778 0.319725
vt 0.878844 0.102508
vt 0.865306 0.091398
vt 0.876416 0.077861
vt 0.271247 0.910655
vt 0.180016 0.821926
vt 0.129079 0.899299
vt 0.108042 0.906236
vt 0.456239 0.820767
vt 0.405302 0.821926
vt 0.767350 0.319725
vt 0.758992 0.319725
vt 0.776420 0.319725
vt 0.800491 0.008947
vt 0.811277 0.008947
vt 0.815294 0.009053
vt 0.828789 0.009357
vt 0.865306 0.116045
vt 0.865306 0.113618
vt 0.865780 0.111237
vt 0.866709 0.108994
vt 0.868058 0.106976
vt 0.869774 0.105259
vt 0.871793 0.103910
vt 0.874035 0.102981
vt 0.878844 0.102508
vt 0.881225 0.102981
vt 0.883467 0.103910
vt 0.885486 0.105259
vt 0.887202 0.106976
vt 0.888551 0.108994
vt 0.889480 0.111237
vt 0.889954 0.116045
vt 0.889480 0.118426
vt 0.888551 0.120669
vt 0.887202 0.122688
vt 0.885486 0.124404
vt 0.883467 0.125753
vt 0.881225 0.126682
vt 0.876416 0.127155
vt 0.869774 0.124404
vt 0.874035 0.126682
vt 0.871793 0.125753
vt 0.868058 0.122688
vt 0.866709 0.120669
vt 0.865780 0.118426
vt 0.889954 0.088970
vt 0.889954 0.091398
vt 0.889480 0.093779
vt 0.888551 0.096022
vt 0.887202 0.098040
vt 0.885486 0.099757
vt 0.883467 0.101105
vt 0.881225 0.102034
vt 0.876416 0.102508
vt 0.874035 0.102034
vt 0.871793 0.101105
vt 0.869774 0.099757
vt 0.868058 0.098040
vt 0.866709 0.096022
vt 0.865780 0.093779
vt 0.865306 0.088970
vt 0.865780 0.086590
vt 0.866709 0.084347
vt 0.868058 0.082328
vt 0.869774 0.080612
vt 0.871792 0.079263
vt 0.874035 0.078334
vt 0.878844 0.077861
vt 0.881225 0.078334
vt 0.883467 0.079263
vt 0.885486 0.080612
vt 0.887202 0.082328
vt 0.888551 0.084347
vt 0.889480 0.086590
vn -1.0000 0.0000 0.0000
vn 0.0000 -0.0000 -1.0000
vn 1.0000 0.0000 0.0000
vn 0.0000 0.0000 1.0000
vn 0.0000 -1.0000 0.0000
vn -0.8140 0.5809 -0.0000
vn 0.0000 1.0000 0.0000
vn 0.0000 0.6400 0.7683
vn 0.0000 0.6400 -0.7683
vn 0.8140 0.5809 0.0000
vn 0.0000 -0.0980 -0.9952
vn 0.0000 -0.2903 -0.9569
vn 0.0000 -0.4714 -0.8819
vn 0.0000 -0.6344 -0.7730
vn 0.0000 -0.7730 -0.6344
vn 0.0000 -0.8819 -0.4714
vn 0.0000 -0.9569 -0.2903
vn 0.0000 -0.9952 -0.0980
vn 0.0000 -0.9952 0.0980
vn 0.0000 -0.9569 0.2903
vn 0.0000 -0.8819 0.4714
vn 0.0000 -0.7730 0.6344
vn 0.0000 -0.6344 0.7730
vn 0.0000 -0.4714 0.8819
vn 0.0000 -0.2903 0.9569
vn 0.0000 -0.0980 0.9952
vn -0.0000 0.0980 0.9952
vn -0.0000 0.2903 0.9569
vn -0.0000 0.4714 0.8819
vn -0.0000 0.6344 0.7730
vn -0.0000 0.7730 0.6344
vn -0.0000 0.8819 0.4714
vn -0.0000 0.9569 0.2903
vn -0.0000 0.9952 0.0980
vn -0.0000 0.9952 -0.0980
vn -0.0000 0.9569 -0.2903
vn -0.0000 0.8819 -0.4714
vn -0.0000 0.7730 -0.6344
vn -0.0000 0.6344 -0.7730
vn -0.0000 0.4714 -0.8819
vn -0.0000 0.2903 -0.9569
vn 0.0000 0.0980 -0.9952
vn 1.0000 0.0004 0.0000
vn 1.0000 -0.0001 0.0000
s off
f 2/1/1 3/2/1 1/3/1
f 4/4/2 7/5/2 3/6/2
f 8/7/3 5/8/3 7/9/3
f 6/10/4 1/11/4 5/12/4
f 7/13/5 1/14/5 3/15/5
f 2/1/6 10/16/6 4/17/6
f 10/18/7 12/19/7 11/20/7
f 6/10/8 9/21/8 2/22/8
f 4/4/9 11/23/9 8/24/9
f 8/7/10 12/25/10 6/26/10
f 13/27/11 16/28/11 15/29/11
f 16/28/12 17/30/12 15/29/12
f 18/31/13 19/32/13 17/30/13
f 20/33/14 21/34/14 19/32/14
f 22/35/15 23/36/15 21/37/15
f 24/38/16 25/39/16 23/36/16
f 26/40/17 27/41/17 25/39/17
f 28/42/18 29/43/18 27/41/18
f 30/44/19 31/45/19 29/43/19
f 32/46/20 33/47/20 31/45/20
f 34/48/21 35/49/21 33/47/21
f 36/50/22 37/51/22 35/49/22
f 38/52/23 39/53/23 37/54/23
f 40/55/24 41/56/24 39/53/24
f 42/57/25 43/58/25 41/56/25
f 43/58/26 46/59/26 45/60/26
f 46/59/27 47/61/27 45/60/27
f 48/62/28 49/63/28 47/61/28
f 50/64/29 51/65/29 49/63/29
f 52/66/30 53/67/30 51/65/30
f 54/68/31 55/69/31 53/70/31
f 56/71/32 57/72/32 55/69/32
f 57/72/33 60/73/33 59/74/33
f 60/73/34 61/75/34 59/74/34
f 62/76/35 63/77/35 61/75/35
f 64/78/36 65/79/36 63/77/36
f 66/80/37 67/81/37 65/79/37
f 68/82/38 69/83/38 67/81/38
f 70/84/39 71/85/39 69/86/39
f 72/87/40 73/88/40 71/85/40
f 66/89/3 50/90/3 34/91/3
f 74/92/41 75/93/41 73/88/41
f 76/94/42 13/27/42 75/93/42
f 27/95/1 43/96/1 59/97/1
f 2/1/1 4/17/1 3/2/1
f 4/4/2 8/24/2 7/5/2
f 8/7/3 6/26/3 5/8/3
f 6/10/4 2/22/4 1/11/4
f 7/13/5 5/98/5 1/14/5
f 2/1/6 9/99/6 10/16/6
f 10/18/7 9/100/7 12/19/7
f 6/10/8 12/101/8 9/21/8
f 4/4/9 10/102/9 11/23/9
f 8/7/10 11/103/10 12/25/10
f 13/27/11 14/104/11 16/28/11
f 16/28/12 18/31/12 17/30/12
f 18/31/13 20/33/13 19/32/13
f 20/33/14 22/105/14 21/34/14
f 22/35/15 24/38/15 23/36/15
f 24/38/16 26/40/16 25/39/16
f 26/40/17 28/42/17 27/41/17
f 28/42/18 30/44/18 29/43/18
f 30/44/19 32/46/19 31/45/19
f 32/46/20 34/48/20 33/47/20
f 34/48/21 36/50/21 35/49/21
f 36/50/22 38/106/22 37/51/22
f 38/52/23 40/55/23 39/53/23
f 40/55/24 42/57/24 41/56/24
f 42/57/25 44/107/25 43/58/25
f 43/58/26 44/107/26 46/59/26
f 46/59/27 48/62/27 47/61/27
f 48/62/28 50/64/28 49/63/28
f 50/64/29 52/66/29 51/65/29
f 52/66/30 54/108/30 53/67/30
f 54/68/31 56/71/31 55/69/31
f 56/71/32 58/109/32 57/72/32
f 57/72/33 58/109/33 60/73/33
f 60/73/34 62/76/34 61/75/34
f 62/76/35 64/78/35 63/77/35
f 64/78/36 66/80/36 65/79/36
f 66/80/37 68/82/37 67/81/37
f 68/82/38 70/110/38 69/83/38
f 70/84/39 72/87/39 71/85/39
f 72/87/40 74/92/40 73/88/40
f 18/111/3 16/112/3 14/113/3
f 14/113/3 76/114/3 74/115/3
f 74/115/3 72/116/3 70/117/3
f 70/117/3 68/118/3 74/115/3
f 68/118/3 66/89/3 74/115/3
f 66/89/43 64/119/43 62/120/43
f 62/120/44 60/121/44 66/89/44
f 60/121/3 58/122/3 66/89/3
f 58/122/3 56/123/3 54/124/3
f 54/124/3 52/125/3 58/122/3
f 52/125/3 50/90/3 58/122/3
f 50/90/44 48/126/44 46/127/44
f 46/127/3 44/128/3 50/90/3
f 44/128/3 42/129/3 50/90/3
f 42/129/3 40/130/3 38/131/3
f 38/131/3 36/132/3 34/91/3
f 34/91/3 32/133/3 26/134/3
f 32/133/3 30/135/3 26/134/3
f 30/135/44 28/136/44 26/134/44
f 26/134/3 24/137/3 22/138/3
f 22/138/3 20/139/3 18/111/3
f 18/111/3 14/113/3 66/89/3
f 14/113/3 74/115/3 66/89/3
f 42/129/3 38/131/3 50/90/3
f 38/131/3 34/91/3 50/90/3
f 26/134/3 22/138/3 34/91/3
f 22/138/3 18/111/3 34/91/3
f 66/89/3 58/122/3 50/90/3
f 18/111/3 66/89/3 34/91/3
f 74/92/41 76/94/41 75/93/41
f 76/94/42 14/104/42 13/27/42
f 75/140/1 13/141/1 15/142/1
f 15/142/1 17/143/1 19/144/1
f 19/144/1 21/145/1 23/146/1
f 23/146/1 25/147/1 27/95/1
f 27/95/1 29/148/1 31/149/1
f 31/149/1 33/150/1 35/151/1
f 35/151/1 37/152/1 39/153/1
f 39/153/1 41/154/1 43/96/1
f 43/96/1 45/155/1 47/156/1
f 47/156/1 49/157/1 51/158/1
f 51/158/1 53/159/1 59/97/1
f 53/159/1 55/160/1 59/97/1
f 55/160/1 57/161/1 59/97/1
f 59/97/1 61/162/1 63/163/1
f 63/163/1 65/164/1 67/165/1
f 67/165/1 69/166/1 75/140/1
f 69/166/1 71/167/1 75/140/1
f 71/167/1 73/168/1 75/140/1
f 75/140/1 15/142/1 27/95/1
f 15/142/1 19/144/1 27/95/1
f 19/144/1 23/146/1 27/95/1
f 27/95/1 31/149/1 43/96/1
f 31/149/1 35/151/1 43/96/1
f 35/151/1 39/153/1 43/96/1
f 43/96/1 47/156/1 51/158/1
f 59/97/1 63/163/1 75/140/1
f 63/163/1 67/165/1 75/140/1
f 43/96/1 51/158/1 59/97/1
f 75/140/1 27/95/1 59/97/1
