# Blender v3.1.2 OBJ File: 'tank.blend'
# www.blender.org
o Cube.005
v 1.252253 0.049070 -1.243319
v -0.891559 1.190177 -1.000000
v -1.453716 -0.000000 -1.000000
v -1.521052 0.677392 -1.243320
v 1.488992 0.218206 -1.243319
v 1.488992 0.677392 -1.243320
v 1.646284 0.694102 -1.000000
v -1.678888 0.694102 -1.000000
v 1.384760 -0.000000 -1.000000
v 0.918250 1.190177 -1.000000
v 0.829954 1.126454 -1.243320
v -0.808339 1.126454 -1.243320
v -1.521052 0.218206 -1.243319
v 1.646284 0.186843 -1.000000
v -1.678888 0.186843 -1.000000
v -1.317220 0.049070 -1.000000
v -1.317220 0.049070 -1.243319
v -1.521052 0.218206 -1.000000
v -0.808339 1.126454 -1.000000
v 0.829954 1.126454 -1.000000
v 1.488992 0.677392 -1.000000
v 1.488992 0.218206 -1.000000
v -1.521052 0.677392 -1.000000
v 1.252253 0.049070 -1.000000
v 1.252253 0.049070 1.243319
v -0.891559 1.190178 1.000000
v -1.453716 0.000000 1.000000
v -1.521052 0.677392 1.243319
v 1.488992 0.218206 1.243319
v 1.488992 0.677392 1.243319
v 1.646284 0.694102 1.000000
v -1.678888 0.694102 1.000000
v 1.384760 0.000000 1.000000
v 0.918250 1.190178 1.000000
v 0.829954 1.126454 1.243319
v -0.808339 1.126454 1.243319
v -1.521052 0.218206 1.243319
v 1.646284 0.186843 1.000000
v -1.678888 0.186843 1.000000
v -1.317220 0.049070 1.000000
v -1.317220 0.049070 1.243319
v -1.521052 0.218206 1.000000
v -0.808339 1.126454 1.000000
v 0.829954 1.126454 1.000000
v 1.488992 0.677392 1.000000
v 1.488992 0.218206 1.000000
v -1.521052 0.677392 1.000000
v 1.252253 0.049070 1.000000
v -0.495519 1.191920 0.652167
v -0.495519 1.676220 0.652167
v -0.495519 1.191920 -0.542338
v -0.495519 1.676220 -0.542338
v 0.527867 1.191920 0.652167
v 0.527867 1.676220 0.652167
v 0.527867 1.191920 -0.542338
v 0.527867 1.676220 -0.542338
v -0.414017 1.790422 0.557037
v -0.414017 1.790421 -0.447209
v 0.446366 1.790421 -0.447209
v 0.446366 1.790422 0.557037
v 0.499931 1.409737 -0.069531
v 2.570711 1.409737 -0.069531
v 0.499931 1.393639 -0.067946
v 2.570711 1.393640 -0.067946
v 0.499931 1.378161 -0.063250
v 2.570711 1.378161 -0.063250
v 0.499931 1.363895 -0.055625
v 2.570711 1.363895 -0.055625
v 0.499931 1.351392 -0.045364
v 2.570711 1.351392 -0.045364
v 0.499931 1.341130 -0.032860
v 2.570711 1.341130 -0.032860
v 0.499931 1.333505 -0.018595
v 2.570711 1.333505 -0.018595
v 0.499931 1.328810 -0.003116
v 2.570711 1.328810 -0.003116
v 0.499931 1.327224 0.012981
v 2.570711 1.327224 0.012981
v 0.499931 1.328810 0.029079
v 2.570711 1.328810 0.029079
v 0.499931 1.333505 0.044558
v 2.570711 1.333505 0.044558
v 0.499931 1.341130 0.058823
v 2.570711 1.341130 0.058823
v 0.499931 1.351392 0.071327
v 2.570711 1.351392 0.071327
v 0.499931 1.363895 0.081588
v 2.570711 1.363895 0.081588
v 0.499931 1.378161 0.089213
v 2.570711 1.378161 0.089213
v 0.499931 1.393639 0.093909
v 2.570711 1.393640 0.093909
v 0.499931 1.409737 0.095494
v 2.570711 1.409737 0.095494
v 0.499931 1.425834 0.093909
v 2.570711 1.425834 0.093909
v 0.499931 1.441313 0.089213
v 2.570711 1.441313 0.089213
v 0.499931 1.455578 0.081588
v 2.570711 1.455578 0.081588
v 0.499931 1.468082 0.071327
v 2.570711 1.468082 0.071327
v 0.499931 1.478343 0.058823
v 2.570711 1.478344 0.058823
v 0.499931 1.485968 0.044558
v 2.570711 1.485969 0.044558
v 0.499931 1.490664 0.029079
v 2.570711 1.490664 0.029079
v 0.499931 1.492249 0.012981
v 2.570711 1.492249 0.012981
v 0.499931 1.490664 -0.003116
v 2.570711 1.490664 -0.003116
v 0.499931 1.485968 -0.018595
v 2.570711 1.485969 -0.018595
v 0.499931 1.478343 -0.032860
v 2.570711 1.478344 -0.032860
v 0.499931 1.468082 -0.045364
v 2.570711 1.468082 -0.045364
v 0.499931 1.455578 -0.055625
v 2.570711 1.455578 -0.055625
v 0.499931 1.441313 -0.063250
v 2.570711 1.441313 -0.063250
v 0.499931 1.425834 -0.067946
v 2.570711 1.425834 -0.067946
vt 0.455658 0.549996
vt 0.474229 0.544265
vt 0.459834 0.561613
vt 0.803085 0.660767
vt 0.766568 0.546865
vt 0.803085 0.546865
vt 0.909400 0.615779
vt 0.945917 0.684692
vt 0.909400 0.684692
vt 0.057105 0.984046
vt 0.013934 0.813830
vt 0.057105 0.813830
vt 0.184149 0.755863
vt 0.354364 0.604467
vt 0.354364 0.755863
vt 0.427994 0.506036
vt 0.322771 0.466390
vt 0.503197 0.395669
vt 0.354365 0.530832
vt 0.184149 0.604467
vt 0.184149 0.530832
vt 0.322771 0.036089
vt 0.427994 0.001954
vt 0.503197 0.121310
vt 0.184149 0.549996
vt 0.013934 0.791572
vt 0.013934 0.549996
vt 0.314419 0.979208
vt 0.271247 0.808993
vt 0.314419 0.808993
vt 0.184149 0.808993
vt 0.354364 0.808993
vt 0.514731 0.530832
vt 0.471560 0.530832
vt 0.184149 0.530832
vt 0.514731 0.813830
vt 0.474229 0.800443
vt 0.513309 0.800443
vt 0.103295 0.455316
vt 0.063037 0.411493
vt 0.103295 0.411493
vt 0.803085 0.905059
vt 0.766568 0.660767
vt 0.022778 0.363354
vt 0.063036 0.411493
vt 0.022778 0.411493
vt 0.455658 0.791572
vt 0.459834 0.780295
vt 0.556951 0.597840
vt 0.513309 0.544265
vt 0.556951 0.751869
vt 0.551528 0.744354
vt 0.551528 0.604923
vt 0.471560 0.813830
vt 0.022778 0.017436
vt 0.063036 0.363354
vt 0.945917 0.753606
vt 0.909400 0.684692
vt 0.945917 0.684692
vt 0.803085 0.995704
vt 0.766568 0.905059
vt 0.354365 0.794666
vt 0.372936 0.800397
vt 0.370266 0.813830
vt 0.803085 0.995704
vt 0.839602 0.881801
vt 0.839602 0.995704
vt 0.945917 0.615779
vt 0.982433 0.546865
vt 0.982433 0.615779
vt 0.247568 0.001954
vt 0.142345 0.041600
vt 0.170670 0.001954
vt 0.142345 0.471901
vt 0.247568 0.506036
vt 0.170670 0.506036
vt 0.413438 0.813830
vt 0.413438 0.530832
vt 0.372936 0.544219
vt 0.370266 0.530832
vt 0.063036 0.411493
vt 0.022778 0.455316
vt 0.022778 0.411493
vt 0.803085 0.881801
vt 0.839602 0.637509
vt 0.063037 0.411493
vt 0.103295 0.363354
vt 0.103295 0.411493
vt 0.354365 0.553090
vt 0.358541 0.783049
vt 0.412016 0.800397
vt 0.455658 0.746822
vt 0.455658 0.592794
vt 0.412016 0.544219
vt 0.322771 0.386680
vt 0.322771 0.112321
vt 0.450235 0.600308
vt 0.063037 0.363354
vt 0.103295 0.017436
vt 0.945917 0.546865
vt 0.909400 0.615779
vt 0.909400 0.546865
vt 0.803085 0.637509
vt 0.839602 0.546865
vt 0.184149 0.791572
vt 0.013934 0.813830
vt 0.170297 0.813830
vt 0.129079 0.915492
vt 0.129079 0.813830
vt 0.446520 0.813830
vt 0.405302 0.900928
vt 0.405302 0.813830
vt 0.395582 0.813830
vt 0.354365 0.915492
vt 0.354365 0.813830
vt 0.098323 0.899299
vt 0.057105 0.986397
vt 0.057105 0.899299
vt 0.271247 0.808993
vt 0.184149 0.910655
vt 0.184149 0.808993
vt 0.180016 0.907395
vt 0.170297 0.915492
vt 0.129079 0.813830
vt 0.057105 0.899299
vt 0.057105 0.813830
vt 0.108042 0.979461
vt 0.098323 0.986397
vt 0.456239 0.893992
vt 0.446520 0.900928
vt 0.405302 0.907395
vt 0.395582 0.915492
vt 0.847961 0.546865
vt 0.845580 0.857643
vt 0.845580 0.546865
vt 0.843337 0.546865
vt 0.843337 0.857643
vt 0.841319 0.546865
vt 0.841319 0.857643
vt 0.839602 0.546865
vt 0.874459 0.857643
vt 0.872440 0.546865
vt 0.874459 0.546865
vt 0.872440 0.857643
vt 0.870197 0.546865
vt 0.870197 0.857643
vt 0.867817 0.546865
vt 0.867817 0.857643
vt 0.865389 0.546865
vt 0.865389 0.857643
vt 0.863008 0.546865
vt 0.863008 0.857643
vt 0.860765 0.546865
vt 0.860765 0.857643
vt 0.858747 0.546865
vt 0.858747 0.857643
vt 0.857030 0.546865
vt 0.874459 0.546865
vt 0.876477 0.857643
vt 0.874459 0.857643
vt 0.876477 0.546865
vt 0.878720 0.857643
vt 0.878720 0.546865
vt 0.881101 0.857643
vt 0.883528 0.546865
vt 0.883528 0.857643
vt 0.885909 0.857643
vt 0.885909 0.546865
vt 0.888152 0.857643
vt 0.888152 0.546865
vt 0.890171 0.857643
vt 0.890170 0.546865
vt 0.891887 0.857643
vt 0.891887 0.547275
vt 0.893764 0.855883
vt 0.891887 0.856057
vt 0.893764 0.547101
vt 0.895904 0.855753
vt 0.898227 0.546892
vt 0.898227 0.855673
vt 0.900643 0.855647
vt 0.900643 0.546865
vt 0.903059 0.855673
vt 0.903059 0.546892
vt 0.905382 0.855753
vt 0.905382 0.546971
vt 0.907523 0.855883
vt 0.907523 0.547101
vt 0.909400 0.856057
vt 0.857030 0.857643
vt 0.855012 0.546865
vt 0.857030 0.546865
vt 0.855012 0.857643
vt 0.852769 0.546865
vt 0.957026 0.640426
vt 0.970564 0.651536
vt 0.959454 0.665073
vt 0.852769 0.857643
vt 0.850388 0.546865
vt 0.850388 0.857643
vt 0.959454 0.640426
vt 0.945917 0.629316
vt 0.957026 0.615779
vt 0.945917 0.615779
vt 0.013934 0.984046
vt 0.351096 0.506036
vt 0.351096 0.001954
vt 0.271247 0.979208
vt 0.013934 0.530832
vt 0.063037 0.455316
vt 0.063037 0.017436
vt 0.909400 0.753606
vt 0.766568 0.995704
vt 0.945917 0.546865
vt 0.063036 0.455316
vt 0.358541 0.564367
vt 0.450235 0.739740
vt 0.063037 0.017436
vt 0.945917 0.615779
vt 0.803085 0.546865
vt 0.184149 0.813830
vt 0.271247 0.910655
vt 0.180016 0.821926
vt 0.129079 0.899299
vt 0.108042 0.906236
vt 0.456239 0.820767
vt 0.405302 0.821926
vt 0.847961 0.857643
vt 0.839602 0.857643
vt 0.857030 0.857643
vt 0.881101 0.546865
vt 0.891887 0.546865
vt 0.895904 0.546971
vt 0.909400 0.547275
vt 0.945917 0.653963
vt 0.945917 0.651536
vt 0.946390 0.649155
vt 0.947319 0.646912
vt 0.948668 0.644894
vt 0.950384 0.643177
vt 0.952403 0.641829
vt 0.954646 0.640899
vt 0.959454 0.640426
vt 0.961835 0.640899
vt 0.964078 0.641829
vt 0.966096 0.643177
vt 0.967813 0.644894
vt 0.969161 0.646912
vt 0.970090 0.649155
vt 0.970564 0.653963
vt 0.970090 0.656344
vt 0.969161 0.658587
vt 0.967813 0.660606
vt 0.966096 0.662322
vt 0.964078 0.663671
vt 0.961835 0.664600
vt 0.957026 0.665073
vt 0.950384 0.662322
vt 0.954646 0.664600
vt 0.952403 0.663671
vt 0.948668 0.660606
vt 0.947319 0.658587
vt 0.946390 0.656344
vt 0.970564 0.626889
vt 0.970564 0.629316
vt 0.970090 0.631697
vt 0.969161 0.633940
vt 0.967813 0.635958
vt 0.966096 0.637675
vt 0.964078 0.639023
vt 0.961835 0.639952
vt 0.957026 0.640426
vt 0.954646 0.639952
vt 0.952403 0.639023
vt 0.950384 0.637675
vt 0.948668 0.635958
vt 0.947319 0.633940
vt 0.946390 0.631697
vt 0.945917 0.626889
vt 0.946390 0.624508
vt 0.947319 0.622265
vt 0.948668 0.620246
vt 0.950384 0.618530
vt 0.952403 0.617181
vt 0.954646 0.616252
vt 0.959454 0.615779
vt 0.961835 0.616252
vt 0.964078 0.617181
vt 0.966096 0.618530
vt 0.967813 0.620246
vt 0.969161 0.622265
vt 0.970090 0.624508
vn 0.0000 0.0000 -1.0000
vn -0.5331 0.8461 0.0000
vn 1.0000 0.0000 0.0000
vn -1.0000 0.0000 0.0000
vn 0.0000 1.0000 -0.0000
vn 0.0000 -1.0000 0.0000
vn 0.5631 0.8264 -0.0000
vn -0.6386 -0.7696 0.0000
vn 0.5813 -0.8137 0.0000
vn -0.0000 0.0000 1.0000
vn -0.8140 0.5809 -0.0000
vn 0.0000 0.6400 0.7683
vn 0.0000 0.6400 -0.7683
vn 0.8140 0.5809 0.0000
vn 0.0000 -0.0980 -0.9952
vn 0.0000 -0.2903 -0.9569
vn 0.0000 -0.4714 -0.8819
vn 0.0000 -0.6344 -0.7730
vn 0.0000 -0.7730 -0.6344
vn 0.0000 -0.8819 -0.4714
vn 0.0000 -0.9569 -0.2903
vn 0.0000 -0.9952 -0.0980
vn 0.0000 -0.9952 0.0980
vn 0.0000 -0.9569 0.2903
vn 0.0000 -0.8819 0.4714
vn 0.0000 -0.7730 0.6344
vn 0.0000 -0.6344 0.7730
vn 0.0000 -0.4714 0.8819
vn 0.0000 -0.2903 0.9569
vn 0.0000 -0.0980 0.9952
vn -0.0000 0.0980 0.9952
vn -0.0000 0.2903 0.9569
vn -0.0000 0.4714 0.8819
vn -0.0000 0.6344 0.7730
vn -0.0000 0.7730 0.6344
vn -0.0000 0.8819 0.4714
vn -0.0000 0.9569 0.2903
vn -0.0000 0.9952 0.0980
vn -0.0000 0.9952 -0.0980
vn -0.0000 0.9569 -0.2903
vn -0.0000 0.8819 -0.4714
vn -0.0000 0.7730 -0.6344
vn -0.0000 0.6344 -0.7730
vn -0.0000 0.4714 -0.8819
vn -0.0000 0.2903 -0.9569
vn 0.0000 0.0980 -0.9952
vn 1.0000 0.0004 0.0000
vn 1.0000 -0.0001 0.0000
s off
f 3/1/1 18/2/1 16/3/1
f 19/4/2 4/5/2 23/6/2
f 22/7/3 6/8/3 21/9/3
f 39/10/4 8/11/4 15/12/4
f 10/13/5 26/14/5 34/15/5
f 6/16/1 1/17/1 11/18/1
f 32/19/2 2/20/2 8/21/2
f 17/22/1 4/23/1 12/24/1
f 3/25/6 33/26/6 27/27/6
f 14/28/3 31/29/3 38/30/3
f 7/31/7 34/15/7 31/32/7
f 8/33/1 18/2/1 15/34/1
f 27/27/8 15/35/8 3/25/8
f 7/36/1 22/37/1 21/38/1
f 18/39/8 17/40/8 16/41/8
f 20/42/5 12/43/5 19/4/5
f 24/44/9 5/45/9 22/46/9
f 9/47/1 16/3/1 24/48/1
f 2/49/1 23/50/1 8/33/1
f 10/51/1 21/38/1 20/52/1
f 12/24/1 1/17/1 17/22/1
f 2/49/1 20/52/1 19/53/1
f 9/47/1 22/37/1 14/54/1
f 16/55/6 1/56/6 24/44/6
f 23/57/4 13/58/4 18/59/4
f 21/60/7 11/61/7 20/42/7
f 27/62/10 42/63/10 39/64/10
f 28/65/2 43/66/2 47/67/2
f 30/68/3 46/69/3 45/70/3
f 30/71/10 25/72/10 29/73/10
f 41/74/10 28/75/10 37/76/10
f 42/63/10 32/77/10 39/64/10
f 31/78/10 46/79/10 38/80/10
f 41/81/8 42/82/8 40/83/8
f 36/84/5 44/85/5 43/66/5
f 29/86/9 48/87/9 46/88/9
f 33/89/10 40/90/10 27/62/10
f 47/91/10 26/92/10 32/77/10
f 34/93/10 45/94/10 31/78/10
f 36/95/10 25/72/10 35/96/10
f 26/92/10 44/97/10 34/93/10
f 46/79/10 33/89/10 38/80/10
f 25/98/6 40/99/6 48/87/6
f 37/100/4 47/101/4 42/102/4
f 35/103/7 45/104/7 44/85/7
f 9/105/9 38/106/9 33/26/9
f 50/107/4 51/108/4 49/109/4
f 52/110/1 55/111/1 51/112/1
f 56/113/3 53/114/3 55/115/3
f 54/116/10 49/117/10 53/118/10
f 55/119/6 49/120/6 51/121/6
f 50/107/11 58/122/11 52/123/11
f 58/124/5 60/125/5 59/126/5
f 54/116/12 57/127/12 50/128/12
f 52/110/13 59/129/13 56/130/13
f 56/113/14 60/131/14 54/132/14
f 61/133/15 64/134/15 63/135/15
f 64/134/16 65/136/16 63/135/16
f 66/137/17 67/138/17 65/136/17
f 68/139/18 69/140/18 67/138/18
f 70/141/19 71/142/19 69/143/19
f 72/144/20 73/145/20 71/142/20
f 74/146/21 75/147/21 73/145/21
f 76/148/22 77/149/22 75/147/22
f 78/150/23 79/151/23 77/149/23
f 80/152/24 81/153/24 79/151/24
f 82/154/25 83/155/25 81/153/25
f 84/156/26 85/157/26 83/155/26
f 86/158/27 87/159/27 85/160/27
f 88/161/28 89/162/28 87/159/28
f 90/163/29 91/164/29 89/162/29
f 91/164/30 94/165/30 93/166/30
f 94/165/31 95/167/31 93/166/31
f 96/168/32 97/169/32 95/167/32
f 98/170/33 99/171/33 97/169/33
f 100/172/34 101/173/34 99/171/34
f 102/174/35 103/175/35 101/176/35
f 104/177/36 105/178/36 103/175/36
f 105/178/37 108/179/37 107/180/37
f 108/179/38 109/181/38 107/180/38
f 110/182/39 111/183/39 109/181/39
f 112/184/40 113/185/40 111/183/40
f 114/186/41 115/187/41 113/185/41
f 116/188/42 117/189/42 115/187/42
f 118/190/43 119/191/43 117/192/43
f 120/193/44 121/194/44 119/191/44
f 114/195/3 98/196/3 82/197/3
f 122/198/45 123/199/45 121/194/45
f 124/200/46 61/133/46 123/199/46
f 75/201/4 91/202/4 107/203/4
f 3/1/1 15/34/1 18/2/1
f 19/4/2 12/43/2 4/5/2
f 22/7/3 5/204/3 6/8/3
f 39/10/4 32/205/4 8/11/4
f 10/13/5 2/20/5 26/14/5
f 6/16/1 5/206/1 1/17/1
f 32/19/2 26/14/2 2/20/2
f 17/22/1 13/207/1 4/23/1
f 3/25/6 9/105/6 33/26/6
f 14/28/3 7/208/3 31/29/3
f 7/31/7 10/13/7 34/15/7
f 8/33/1 23/50/1 18/2/1
f 27/27/8 39/209/8 15/35/8
f 7/36/1 14/54/1 22/37/1
f 18/39/8 13/210/8 17/40/8
f 20/42/5 11/61/5 12/43/5
f 24/44/9 1/56/9 5/45/9
f 9/47/1 3/1/1 16/3/1
f 2/49/1 19/53/1 23/50/1
f 10/51/1 7/36/1 21/38/1
f 12/24/1 11/18/1 1/17/1
f 2/49/1 10/51/1 20/52/1
f 9/47/1 24/48/1 22/37/1
f 16/55/6 17/211/6 1/56/6
f 23/57/4 4/212/4 13/58/4
f 21/60/7 6/213/7 11/61/7
f 27/62/10 40/90/10 42/63/10
f 28/65/2 36/84/2 43/66/2
f 30/68/3 29/214/3 46/69/3
f 30/71/10 35/96/10 25/72/10
f 41/74/10 36/95/10 28/75/10
f 42/63/10 47/91/10 32/77/10
f 31/78/10 45/94/10 46/79/10
f 41/81/8 37/215/8 42/82/8
f 36/84/5 35/103/5 44/85/5
f 29/86/9 25/98/9 48/87/9
f 33/89/10 48/216/10 40/90/10
f 47/91/10 43/217/10 26/92/10
f 34/93/10 44/97/10 45/94/10
f 36/95/10 41/74/10 25/72/10
f 26/92/10 43/217/10 44/97/10
f 46/79/10 48/216/10 33/89/10
f 25/98/6 41/218/6 40/99/6
f 37/100/4 28/219/4 47/101/4
f 35/103/7 30/220/7 45/104/7
f 9/105/9 14/221/9 38/106/9
f 50/107/4 52/123/4 51/108/4
f 52/110/1 56/130/1 55/111/1
f 56/113/3 54/132/3 53/114/3
f 54/116/10 50/128/10 49/117/10
f 55/119/6 53/222/6 49/120/6
f 50/107/11 57/223/11 58/122/11
f 58/124/5 57/224/5 60/125/5
f 54/116/12 60/225/12 57/127/12
f 52/110/13 58/226/13 59/129/13
f 56/113/14 59/227/14 60/131/14
f 61/133/15 62/228/15 64/134/15
f 64/134/16 66/137/16 65/136/16
f 66/137/17 68/139/17 67/138/17
f 68/139/18 70/229/18 69/140/18
f 70/141/19 72/144/19 71/142/19
f 72/144/20 74/146/20 73/145/20
f 74/146/21 76/148/21 75/147/21
f 76/148/22 78/150/22 77/149/22
f 78/150/23 80/152/23 79/151/23
f 80/152/24 82/154/24 81/153/24
f 82/154/25 84/156/25 83/155/25
f 84/156/26 86/230/26 85/157/26
f 86/158/27 88/161/27 87/159/27
f 88/161/28 90/163/28 89/162/28
f 90/163/29 92/231/29 91/164/29
f 91/164/30 92/231/30 94/165/30
f 94/165/31 96/168/31 95/167/31
f 96/168/32 98/170/32 97/169/32
f 98/170/33 100/172/33 99/171/33
f 100/172/34 102/232/34 101/173/34
f 102/174/35 104/177/35 103/175/35
f 104/177/36 106/233/36 105/178/36
f 105/178/37 106/233/37 108/179/37
f 108/179/38 110/182/38 109/181/38
f 110/182/39 112/184/39 111/183/39
f 112/184/40 114/186/40 113/185/40
f 114/186/41 116/188/41 115/187/41
f 116/188/42 118/234/42 117/189/42
f 118/190/43 120/193/43 119/191/43
f 120/193/44 122/198/44 121/194/44
f 66/235/3 64/236/3 62/237/3
f 62/237/3 124/238/3 122/239/3
f 122/239/3 120/240/3 118/241/3
f 118/241/3 116/242/3 122/239/3
f 116/242/3 114/195/3 122/239/3
f 114/195/47 112/243/47 110/244/47
f 110/244/48 108/245/48 114/195/48
f 108/245/3 106/246/3 114/195/3
f 106/246/3 104/247/3 102/248/3
f 102/248/3 100/249/3 106/246/3
f 100/249/3 98/196/3 106/246/3
f 98/196/48 96/250/48 94/251/48
f 94/251/3 92/252/3 98/196/3
f 92/252/3 90/253/3 98/196/3
f 90/253/3 88/254/3 86/255/3
f 86/255/3 84/256/3 82/197/3
f 82/197/3 80/257/3 74/258/3
f 80/257/3 78/259/3 74/258/3
f 78/259/48 76/260/48 74/258/48
f 74/258/3 72/261/3 70/262/3
f 70/262/3 68/263/3 66/235/3
f 66/235/3 62/237/3 114/195/3
f 62/237/3 122/239/3 114/195/3
f 90/253/3 86/255/3 98/196/3
f 86/255/3 82/197/3 98/196/3
f 74/258/3 70/262/3 82/197/3
f 70/262/3 66/235/3 82/197/3
f 114/195/3 106/246/3 98/196/3
f 66/235/3 114/195/3 82/197/3
f 122/198/45 124/200/45 123/199/45
f 124/200/46 62/228/46 61/133/46
f 123/264/4 61/265/4 63/266/4
f 63/266/4 65/267/4 67/268/4
f 67/268/4 69/269/4 71/270/4
f 71/270/4 73/271/4 75/201/4
f 75/201/4 77/272/4 79/273/4
f 79/273/4 81/274/4 83/275/4
f 83/275/4 85/276/4 87/277/4
f 87/277/4 89/278/4 91/202/4
f 91/202/4 93/279/4 95/280/4
f 95/280/4 97/281/4 99/282/4
f 99/282/4 101/283/4 107/203/4
f 101/283/4 103/284/4 107/203/4
f 103/284/4 105/285/4 107/203/4
f 107/203/4 109/286/4 111/287/4
f 111/287/4 113/288/4 115/289/4
f 115/289/4 117/290/4 123/264/4
f 117/290/4 119/291/4 123/264/4
f 119/291/4 121/292/4 123/264/4
f 123/264/4 63/266/4 75/201/4
f 63/266/4 67/268/4 75/201/4
f 67/268/4 71/270/4 75/201/4
f 75/201/4 79/273/4 91/202/4
f 79/273/4 83/275/4 91/202/4
f 83/275/4 87/277/4 91/202/4
f 91/202/4 95/280/4 99/282/4
f 107/203/4 111/287/4 123/264/4
f 111/287/4 115/289/4 123/264/4
f 91/202/4 99/282/4 107/203/4
f 123/264/4 75/201/4 107/203/4
