# Blender v3.1.2 OBJ File: ''
# www.blender.org
o Cube
v 1.000000 4.000000 -1.000000
v 1.000000 0.000000 -1.000000
v 1.000000 4.000000 1.000000
v 1.000000 0.000000 1.000000
v -1.000000 4.000000 -1.000000
v -1.000000 0.000000 -1.000000
v -1.000000 4.000000 1.000000
v -1.000000 0.000000 1.000000
v 0.951696 0.822358 -0.951696
v -0.951696 0.822358 0.951696
v 0.951696 0.822358 0.951696
v -0.951696 0.822358 -0.951696
v -1.000000 0.981221 1.000000
v 1.000000 0.981221 -1.000000
v 1.000000 0.981221 1.000000
v -1.000000 0.981221 -1.000000
v 1.000000 0.677404 -1.000000
v 1.000000 0.677404 1.000000
v -1.000000 0.677404 -1.000000
v -1.000000 0.677404 1.000000
vt 0.875000 0.500000
vt 0.625000 0.750000
vt 0.625000 0.500000
vt 0.436326 1.000000
vt 0.436326 0.750000
vt 0.625000 0.000000
vt 0.436326 0.250000
vt 0.436326 0.000000
vt 0.375000 0.500000
vt 0.125000 0.750000
vt 0.125000 0.500000
vt 0.436326 0.500000
vt 0.625000 0.250000
vt 0.426397 0.250000
vt 0.417338 0.500000
vt 0.417338 0.250000
vt 0.426397 0.500000
vt 0.417338 0.750000
vt 0.426397 0.000000
vt 0.417338 0.000000
vt 0.426397 0.750000
vt 0.417338 1.000000
vt 0.426397 1.000000
vt 0.375000 1.000000
vt 0.375000 0.750000
vt 0.375000 0.250000
vt 0.375000 0.000000
vt 0.875000 0.750000
vt 0.625000 1.000000
vn 0.0000 1.0000 0.0000
vn 0.0000 0.0000 1.0000
vn -1.0000 0.0000 0.0000
vn 0.0000 -1.0000 0.0000
vn 1.0000 0.0000 0.0000
vn 0.0000 0.0000 -1.0000
vn 0.0000 0.3161 -0.9487
vn 0.9487 0.3161 0.0000
vn -0.9487 0.3161 0.0000
vn 0.0000 0.3161 0.9487
vn 0.0000 -0.2909 -0.9567
vn 0.9567 -0.2909 0.0000
vn -0.9567 -0.2909 0.0000
vn 0.0000 -0.2909 0.9567
vn 0.9568 -0.2909 0.0000
vn -0.9568 -0.2909 0.0000
s off
f 5/1/1 3/2/1 1/3/1
f 3/2/2 13/4/2 15/5/2
f 7/6/3 16/7/3 13/8/3
f 2/9/4 8/10/4 6/11/4
f 1/3/5 15/5/5 14/12/5
f 5/13/6 14/12/6 16/7/6
f 12/14/7 17/15/7 19/16/7
f 9/17/8 18/18/8 17/15/8
f 10/19/9 19/16/9 20/20/9
f 11/21/10 20/22/10 18/18/10
f 16/7/11 9/17/11 12/14/11
f 14/12/12 11/21/12 9/17/12
f 13/8/13 12/14/13 10/19/13
f 15/5/14 10/23/14 11/21/14
f 18/18/2 8/24/2 4/25/2
f 20/20/3 6/26/3 8/27/3
f 17/15/5 4/25/5 2/9/5
f 19/16/6 2/9/6 6/26/6
f 5/1/1 7/28/1 3/2/1
f 3/2/2 7/29/2 13/4/2
f 7/6/3 5/13/3 16/7/3
f 2/9/4 4/25/4 8/10/4
f 1/3/5 3/2/5 15/5/5
f 5/13/6 1/3/6 14/12/6
f 12/14/7 9/17/7 17/15/7
f 9/17/8 11/21/8 18/18/8
f 10/19/9 12/14/9 19/16/9
f 11/21/10 10/23/10 20/22/10
f 16/7/11 14/12/11 9/17/11
f 14/12/15 15/5/15 11/21/15
f 13/8/16 16/7/16 12/14/16
f 15/5/14 13/4/14 10/23/14
f 18/18/2 20/22/2 8/24/2
f 20/20/3 19/16/3 6/26/3
f 17/15/5 18/18/5 4/25/5
f 19/16/6 17/15/6 2/9/6
