# Blender v3.1.2 OBJ File: 'tank.blend'
# www.blender.org
o Cube.005
v 1.252253 0.049070 -1.243319
v -0.891559 1.190177 -1.000000
v -1.453716 -0.000000 -1.000000
v -1.521052 0.677392 -1.243320
v 1.488992 0.218206 -1.243319
v 1.488992 0.677392 -1.243320
v 1.646284 0.694102 -1.000000
v -1.678888 0.694102 -1.000000
v 1.384760 -0.000000 -1.000000
v 0.918250 1.190177 -1.000000
v 0.829954 1.126454 -1.243320
v -0.808339 1.126454 -1.243320
v -1.521052 0.218206 -1.243319
v 1.646284 0.186843 -1.000000
v -1.678888 0.186843 -1.000000
v -1.317220 0.049070 -1.000000
v -1.317220 0.049070 -1.243319
v -1.521052 0.218206 -1.000000
v -0.808339 1.126454 -1.000000
v 0.829954 1.126454 -1.000000
v 1.488992 0.677392 -1.000000
v 1.488992 0.218206 -1.000000
v -1.521052 0.677392 -1.000000
v 1.252253 0.049070 -1.000000
v 1.252253 0.049070 1.243319
v -0.891559 1.190178 1.000000
v -1.453716 0.000000 1.000000
v -1.521052 0.677392 1.243319
v 1.488992 0.218206 1.243319
v 1.488992 0.677392 1.243319
v 1.646284 0.694102 1.000000
v -1.678888 0.694102 1.000000
v 1.384760 0.000000 1.000000
v 0.918250 1.190178 1.000000
v 0.829954 1.126454 1.243319
v -0.808339 1.126454 1.243319
v -1.521052 0.218206 1.243319
v 1.646284 0.186843 1.000000
v -1.678888 0.186843 1.000000
v -1.317220 0.049070 1.000000
v -1.317220 0.049070 1.243319
v -1.521052 0.218206 1.000000
v -0.808339 1.126454 1.000000
v 0.829954 1.126454 1.000000
v 1.488992 0.677392 1.000000
v 1.488992 0.218206 1.000000
v -1.521052 0.677392 1.000000
v 1.252253 0.049070 1.000000
vt 0.455658 0.549996
vt 0.474229 0.544265
vt 0.459834 0.561613
vt 0.722475 0.122849
vt 0.685958 0.008947
vt 0.722475 0.008947
vt 0.828789 0.077861
vt 0.865306 0.146774
vt 0.828789 0.146774
vt 0.057105 0.984046
vt 0.013934 0.813830
vt 0.057105 0.813830
vt 0.184149 0.755863
vt 0.354364 0.604467
vt 0.354364 0.755863
vt 0.910105 0.986597
vt 0.804882 0.946951
vt 0.985308 0.876230
vt 0.354365 0.530832
vt 0.184149 0.604467
vt 0.184149 0.530832
vt 0.804882 0.516650
vt 0.910105 0.482515
vt 0.985308 0.601871
vt 0.184149 0.549996
vt 0.013934 0.791572
vt 0.013934 0.549996
vt 0.314419 0.979208
vt 0.271247 0.808993
vt 0.314419 0.808993
vt 0.184149 0.808993
vt 0.354364 0.808993
vt 0.514731 0.530832
vt 0.471560 0.530832
vt 0.184149 0.530832
vt 0.514731 0.813830
vt 0.474229 0.800443
vt 0.513309 0.800443
vt 0.103295 0.455316
vt 0.063037 0.411493
vt 0.103295 0.411493
vt 0.722475 0.367141
vt 0.685958 0.122849
vt 0.022778 0.363354
vt 0.063036 0.411493
vt 0.022778 0.411493
vt 0.455658 0.791572
vt 0.459834 0.780295
vt 0.556951 0.597840
vt 0.513309 0.544265
vt 0.556951 0.751869
vt 0.551528 0.744354
vt 0.551528 0.604923
vt 0.471560 0.813830
vt 0.022778 0.017436
vt 0.063036 0.363354
vt 0.865306 0.215688
vt 0.828789 0.146774
vt 0.865306 0.146774
vt 0.722475 0.457786
vt 0.685958 0.367141
vt 0.354365 0.794666
vt 0.372936 0.800397
vt 0.370266 0.813830
vt 0.722475 0.457786
vt 0.758992 0.343883
vt 0.758992 0.457786
vt 0.865306 0.077860
vt 0.901823 0.008947
vt 0.901823 0.077861
vt 0.729679 0.482515
vt 0.624456 0.522161
vt 0.652781 0.482515
vt 0.624456 0.952462
vt 0.729679 0.986597
vt 0.652781 0.986597
vt 0.413438 0.813830
vt 0.413438 0.530832
vt 0.372936 0.544219
vt 0.370266 0.530832
vt 0.063036 0.411493
vt 0.022778 0.455316
vt 0.022778 0.411493
vt 0.722475 0.343883
vt 0.758992 0.099591
vt 0.063037 0.411493
vt 0.103295 0.363354
vt 0.103295 0.411493
vt 0.354365 0.553090
vt 0.358541 0.783049
vt 0.412016 0.800397
vt 0.455658 0.746822
vt 0.455658 0.592794
vt 0.412016 0.544219
vt 0.804882 0.867241
vt 0.804882 0.592882
vt 0.450235 0.600308
vt 0.063037 0.363354
vt 0.103295 0.017436
vt 0.865306 0.008947
vt 0.828789 0.077860
vt 0.828789 0.008947
vt 0.722475 0.099591
vt 0.758992 0.008947
vt 0.184149 0.791572
vt 0.013934 0.813830
vt 0.865306 0.077861
vt 0.013934 0.984046
vt 0.833207 0.986597
vt 0.833207 0.482515
vt 0.271247 0.979208
vt 0.013934 0.530832
vt 0.063037 0.455316
vt 0.063037 0.017436
vt 0.828789 0.215688
vt 0.685958 0.457786
vt 0.865306 0.008947
vt 0.063036 0.455316
vt 0.358541 0.564367
vt 0.450235 0.739740
vt 0.063037 0.017436
vt 0.865306 0.077861
vt 0.722475 0.008947
vt 0.184149 0.813830
vn 0.0000 0.0000 -1.0000
vn -0.5331 0.8461 0.0000
vn 1.0000 0.0000 0.0000
vn -1.0000 0.0000 0.0000
vn 0.0000 1.0000 -0.0000
vn 0.0000 -1.0000 0.0000
vn 0.5631 0.8264 -0.0000
vn -0.6386 -0.7696 0.0000
vn 0.5813 -0.8137 0.0000
vn -0.0000 0.0000 1.0000
s off
f 3/1/1 18/2/1 16/3/1
f 19/4/2 4/5/2 23/6/2
f 22/7/3 6/8/3 21/9/3
f 39/10/4 8/11/4 15/12/4
f 10/13/5 26/14/5 34/15/5
f 6/16/1 1/17/1 11/18/1
f 32/19/2 2/20/2 8/21/2
f 17/22/1 4/23/1 12/24/1
f 3/25/6 33/26/6 27/27/6
f 14/28/3 31/29/3 38/30/3
f 7/31/7 34/15/7 31/32/7
f 8/33/1 18/2/1 15/34/1
f 27/27/8 15/35/8 3/25/8
f 7/36/1 22/37/1 21/38/1
f 18/39/8 17/40/8 16/41/8
f 20/42/5 12/43/5 19/4/5
f 24/44/9 5/45/9 22/46/9
f 9/47/1 16/3/1 24/48/1
f 2/49/1 23/50/1 8/33/1
f 10/51/1 21/38/1 20/52/1
f 12/24/1 1/17/1 17/22/1
f 2/49/1 20/52/1 19/53/1
f 9/47/1 22/37/1 14/54/1
f 16/55/6 1/56/6 24/44/6
f 23/57/4 13/58/4 18/59/4
f 21/60/7 11/61/7 20/42/7
f 27/62/10 42/63/10 39/64/10
f 28/65/2 43/66/2 47/67/2
f 30/68/3 46/69/3 45/70/3
f 30/71/10 25/72/10 29/73/10
f 41/74/10 28/75/10 37/76/10
f 42/63/10 32/77/10 39/64/10
f 31/78/10 46/79/10 38/80/10
f 41/81/8 42/82/8 40/83/8
f 36/84/5 44/85/5 43/66/5
f 29/86/9 48/87/9 46/88/9
f 33/89/10 40/90/10 27/62/10
f 47/91/10 26/92/10 32/77/10
f 34/93/10 45/94/10 31/78/10
f 36/95/10 25/72/10 35/96/10
f 26/92/10 44/97/10 34/93/10
f 46/79/10 33/89/10 38/80/10
f 25/98/6 40/99/6 48/87/6
f 37/100/4 47/101/4 42/102/4
f 35/103/7 45/104/7 44/85/7
f 9/105/9 38/106/9 33/26/9
f 3/1/1 15/34/1 18/2/1
f 19/4/2 12/43/2 4/5/2
f 22/7/3 5/107/3 6/8/3
f 39/10/4 32/108/4 8/11/4
f 10/13/5 2/20/5 26/14/5
f 6/16/1 5/109/1 1/17/1
f 32/19/2 26/14/2 2/20/2
f 17/22/1 13/110/1 4/23/1
f 3/25/6 9/105/6 33/26/6
f 14/28/3 7/111/3 31/29/3
f 7/31/7 10/13/7 34/15/7
f 8/33/1 23/50/1 18/2/1
f 27/27/8 39/112/8 15/35/8
f 7/36/1 14/54/1 22/37/1
f 18/39/8 13/113/8 17/40/8
f 20/42/5 11/61/5 12/43/5
f 24/44/9 1/56/9 5/45/9
f 9/47/1 3/1/1 16/3/1
f 2/49/1 19/53/1 23/50/1
f 10/51/1 7/36/1 21/38/1
f 12/24/1 11/18/1 1/17/1
f 2/49/1 10/51/1 20/52/1
f 9/47/1 24/48/1 22/37/1
f 16/55/6 17/114/6 1/56/6
f 23/57/4 4/115/4 13/58/4
f 21/60/7 6/116/7 11/61/7
f 27/62/10 40/90/10 42/63/10
f 28/65/2 36/84/2 43/66/2
f 30/68/3 29/117/3 46/69/3
f 30/71/10 35/96/10 25/72/10
f 41/74/10 36/95/10 28/75/10
f 42/63/10 47/91/10 32/77/10
f 31/78/10 45/94/10 46/79/10
f 41/81/8 37/118/8 42/82/8
f 36/84/5 35/103/5 44/85/5
f 29/86/9 25/98/9 48/87/9
f 33/89/10 48/119/10 40/90/10
f 47/91/10 43/120/10 26/92/10
f 34/93/10 44/97/10 45/94/10
f 36/95/10 41/74/10 25/72/10
f 26/92/10 43/120/10 44/97/10
f 46/79/10 48/119/10 33/89/10
f 25/98/6 41/121/6 40/99/6
f 37/100/4 28/122/4 47/101/4
f 35/103/7 30/123/7 45/104/7
f 9/105/9 14/124/9 38/106/9
