# Blender v3.1.2 OBJ File: 'tankv1.blend'
# www.blender.org
o Cube
v 1.252253 0.049070 -1.243319
v -0.891559 1.190177 -1.000000
v -1.453716 0.000000 -1.000000
v -1.521052 0.677392 -1.243319
v 1.488992 0.218206 -1.243319
v 1.488992 0.677392 -1.243319
v 1.646284 0.694102 -1.000000
v -1.678888 0.694102 -1.000000
v 1.384760 0.000000 -1.000000
v 0.918250 1.190177 -1.000000
v 0.829954 1.126454 -1.243319
v -0.808339 1.126454 -1.243319
v -1.521052 0.218206 -1.243319
v 1.646284 0.186843 -1.000000
v -1.678888 0.186843 -1.000000
v -1.317220 0.049070 -1.000000
v -1.317220 0.049070 -1.243319
v -1.521052 0.218206 -1.000000
v -0.808339 1.126454 -1.000000
v 0.829954 1.126454 -1.000000
v 1.488992 0.677392 -1.000000
v 1.488992 0.218206 -1.000000
v -1.521052 0.677392 -1.000000
v 1.252253 0.049070 -1.000000
v 1.252253 0.049070 1.243319
v -0.891559 1.190177 1.000000
v -1.453716 0.000000 1.000000
v -1.521052 0.677392 1.243319
v 1.488992 0.218206 1.243319
v 1.488992 0.677392 1.243319
v 1.646284 0.694102 1.000000
v -1.678888 0.694102 1.000000
v 1.384760 0.000000 1.000000
v 0.918250 1.190177 1.000000
v 0.829954 1.126454 1.243319
v -0.808339 1.126454 1.243319
v -1.521052 0.218206 1.243319
v 1.646284 0.186843 1.000000
v -1.678888 0.186843 1.000000
v -1.317220 0.049070 1.000000
v -1.317220 0.049070 1.243319
v -1.521052 0.218206 1.000000
v -0.808339 1.126454 1.000000
v 0.829954 1.126454 1.000000
v 1.488992 0.677392 1.000000
v 1.488992 0.218206 1.000000
v -1.521052 0.677392 1.000000
v 1.252253 0.049070 1.000000
vt 0.014966 0.723129
vt 0.029170 0.718746
vt 0.018160 0.732014
vt 0.967483 0.091699
vt 0.944493 0.015230
vt 0.967483 0.015230
vt 0.490473 0.391352
vt 0.513463 0.434739
vt 0.490473 0.434739
vt 0.438536 0.948105
vt 0.405518 0.817921
vt 0.438536 0.817921
vt 0.145150 0.663406
vt 0.275334 0.550226
vt 0.275334 0.663406
vt 0.859415 0.967693
vt 0.759210 0.929938
vt 0.931031 0.862591
vt 0.275334 0.492031
vt 0.145150 0.550226
vt 0.145150 0.492031
vt 0.759210 0.520161
vt 0.859415 0.487654
vt 0.931031 0.601317
vt 0.145150 0.506688
vt 0.014966 0.691449
vt 0.014966 0.506688
vt 0.125455 0.838656
vt 0.092437 0.708472
vt 0.125455 0.708472
vt 0.145150 0.699976
vt 0.275334 0.699976
vt 0.060147 0.708472
vt 0.027128 0.708472
vt 0.145150 0.492031
vt 0.060147 0.924914
vt 0.029170 0.914676
vt 0.059059 0.914676
vt 0.090155 0.364776
vt 0.051350 0.322536
vt 0.090155 0.322536
vt 0.967483 0.240418
vt 0.944493 0.091699
vt 0.984978 0.948850
vt 0.958004 0.987654
vt 0.958004 0.948850
vt 0.014966 0.907891
vt 0.018160 0.899266
vt 0.092437 0.759721
vt 0.059059 0.718746
vt 0.092437 0.877525
vt 0.088289 0.871778
vt 0.088289 0.765138
vt 0.027128 0.924914
vt 0.051350 0.007185
vt 0.090155 0.007185
vt 0.582434 0.434739
vt 0.559443 0.391352
vt 0.582434 0.391352
vt 0.967483 0.288471
vt 0.944493 0.240418
vt 0.405518 0.693816
vt 0.419721 0.698199
vt 0.417680 0.708472
vt 0.990473 0.015230
vt 0.967483 0.091699
vt 0.967483 0.015230
vt 0.536453 0.434739
vt 0.559443 0.391352
vt 0.559443 0.434739
vt 0.687594 0.487654
vt 0.587390 0.525409
vt 0.614364 0.487654
vt 0.587390 0.935186
vt 0.687594 0.967693
vt 0.614364 0.967693
vt 0.450698 0.708472
vt 0.450698 0.492031
vt 0.419721 0.502269
vt 0.417680 0.492031
vt 0.051350 0.322536
vt 0.012546 0.364776
vt 0.012546 0.322536
vt 0.990473 0.091699
vt 0.967483 0.240418
vt 0.931031 0.948850
vt 0.958004 0.987654
vt 0.931031 0.987654
vt 0.405518 0.509054
vt 0.408712 0.684931
vt 0.449610 0.698199
vt 0.482989 0.657224
vt 0.482989 0.539420
vt 0.449610 0.502269
vt 0.759210 0.854030
vt 0.759210 0.592757
vt 0.478841 0.545167
vt 0.051350 0.007185
vt 0.012546 0.007185
vt 0.536453 0.391352
vt 0.513463 0.434739
vt 0.513463 0.391352
vt 0.990473 0.240418
vt 0.967483 0.288471
vt 0.145150 0.691449
vt 0.014966 0.708472
vt 0.513463 0.391352
vt 0.405518 0.948105
vt 0.786184 0.967693
vt 0.786184 0.487654
vt 0.092437 0.838656
vt 0.014966 0.492031
vt 0.051350 0.364776
vt 0.984978 0.987654
vt 0.559443 0.434739
vt 0.944493 0.288471
vt 0.536453 0.391352
vt 0.051350 0.364776
vt 0.958004 0.948850
vt 0.408712 0.517679
vt 0.478841 0.651807
vt 0.536453 0.434739
vt 0.990473 0.288471
vt 0.145150 0.708472
vn 0.0000 0.0000 -1.0000
vn -0.5331 0.8461 0.0000
vn 1.0000 0.0000 0.0000
vn -1.0000 0.0000 0.0000
vn 0.0000 1.0000 0.0000
vn 0.0000 -1.0000 0.0000
vn 0.5631 0.8264 0.0000
vn -0.6386 -0.7696 0.0000
vn 0.5813 -0.8137 0.0000
vn 0.0000 0.0000 1.0000
s off
f 3/1/1 18/2/1 16/3/1
f 19/4/2 4/5/2 23/6/2
f 22/7/3 6/8/3 21/9/3
f 39/10/4 8/11/4 15/12/4
f 10/13/5 26/14/5 34/15/5
f 6/16/1 1/17/1 11/18/1
f 32/19/2 2/20/2 8/21/2
f 17/22/1 4/23/1 12/24/1
f 3/25/6 33/26/6 27/27/6
f 14/28/3 31/29/3 38/30/3
f 7/31/7 34/15/7 31/32/7
f 8/33/1 18/2/1 15/34/1
f 27/27/8 15/35/8 3/25/8
f 7/36/1 22/37/1 21/38/1
f 18/39/8 17/40/8 16/41/8
f 20/42/5 12/43/5 19/4/5
f 24/44/9 5/45/9 22/46/9
f 9/47/1 16/3/1 24/48/1
f 2/49/1 23/50/1 8/33/1
f 10/51/1 21/38/1 20/52/1
f 12/24/1 1/17/1 17/22/1
f 2/49/1 20/52/1 19/53/1
f 9/47/1 22/37/1 14/54/1
f 16/41/6 1/55/6 24/56/6
f 23/57/4 13/58/4 18/59/4
f 21/60/7 11/61/7 20/42/7
f 27/62/10 42/63/10 39/64/10
f 28/65/2 43/66/2 47/67/2
f 30/68/3 46/69/3 45/70/3
f 30/71/10 25/72/10 29/73/10
f 41/74/10 28/75/10 37/76/10
f 42/63/10 32/77/10 39/64/10
f 31/78/10 46/79/10 38/80/10
f 41/81/8 42/82/8 40/83/8
f 36/84/5 44/85/5 43/66/5
f 29/86/9 48/87/9 46/88/9
f 33/89/10 40/90/10 27/62/10
f 47/91/10 26/92/10 32/77/10
f 34/93/10 45/94/10 31/78/10
f 36/95/10 25/72/10 35/96/10
f 26/92/10 44/97/10 34/93/10
f 46/79/10 33/89/10 38/80/10
f 25/98/6 40/83/6 48/99/6
f 37/100/4 47/101/4 42/102/4
f 35/103/7 45/104/7 44/85/7
f 9/105/9 38/106/9 33/26/9
f 3/1/1 15/34/1 18/2/1
f 19/4/2 12/43/2 4/5/2
f 22/7/3 5/107/3 6/8/3
f 39/10/4 32/108/4 8/11/4
f 10/13/5 2/20/5 26/14/5
f 6/16/1 5/109/1 1/17/1
f 32/19/2 26/14/2 2/20/2
f 17/22/1 13/110/1 4/23/1
f 3/25/6 9/105/6 33/26/6
f 14/28/3 7/111/3 31/29/3
f 7/31/7 10/13/7 34/15/7
f 8/33/1 23/50/1 18/2/1
f 27/27/8 39/112/8 15/35/8
f 7/36/1 14/54/1 22/37/1
f 18/39/8 13/113/8 17/40/8
f 20/42/5 11/61/5 12/43/5
f 24/44/9 1/114/9 5/45/9
f 9/47/1 3/1/1 16/3/1
f 2/49/1 19/53/1 23/50/1
f 10/51/1 7/36/1 21/38/1
f 12/24/1 11/18/1 1/17/1
f 2/49/1 10/51/1 20/52/1
f 9/47/1 24/48/1 22/37/1
f 16/41/6 17/40/6 1/55/6
f 23/57/4 4/115/4 13/58/4
f 21/60/7 6/116/7 11/61/7
f 27/62/10 40/90/10 42/63/10
f 28/65/2 36/84/2 43/66/2
f 30/68/3 29/117/3 46/69/3
f 30/71/10 35/96/10 25/72/10
f 41/74/10 36/95/10 28/75/10
f 42/63/10 47/91/10 32/77/10
f 31/78/10 45/94/10 46/79/10
f 41/81/8 37/118/8 42/82/8
f 36/84/5 35/103/5 44/85/5
f 29/86/9 25/119/9 48/87/9
f 33/89/10 48/120/10 40/90/10
f 47/91/10 43/121/10 26/92/10
f 34/93/10 44/97/10 45/94/10
f 36/95/10 41/74/10 25/72/10
f 26/92/10 43/121/10 44/97/10
f 46/79/10 48/120/10 33/89/10
f 25/98/6 41/81/6 40/83/6
f 37/100/4 28/122/4 47/101/4
f 35/103/7 30/123/7 45/104/7
f 9/105/9 14/124/9 38/106/9
o Cube.002
v -0.495519 1.191920 0.652167
v -0.495519 1.676220 0.652167
v -0.495519 1.191920 -0.542338
v -0.495519 1.676220 -0.542338
v 0.527867 1.191920 0.652167
v 0.527867 1.676220 0.652167
v 0.527867 1.191920 -0.542338
v 0.527867 1.676220 -0.542338
v -0.414017 1.790421 0.557038
v -0.414017 1.790421 -0.447209
v 0.446366 1.790421 -0.447209
v 0.446366 1.790421 0.557038
vt 0.405518 0.941361
vt 0.275334 0.812899
vt 0.405518 0.812899
vt 0.405518 0.780926
vt 0.275334 0.652465
vt 0.405518 0.652465
vt 0.405518 0.620492
vt 0.275334 0.492031
vt 0.405518 0.492031
vt 0.275334 0.828438
vt 0.145150 0.699976
vt 0.275334 0.699976
vt 0.275334 0.860411
vt 0.145150 0.990594
vt 0.145150 0.860411
vt 0.285702 0.973334
vt 0.275334 0.941361
vt 0.514966 0.708472
vt 0.405518 0.817921
vt 0.405518 0.708472
vt 0.155518 0.860411
vt 0.145150 0.828438
vt 0.285702 0.812899
vt 0.275334 0.780926
vt 0.285702 0.652465
vt 0.275334 0.620492
vt 0.275334 0.990594
vt 0.395150 0.973334
vt 0.514966 0.817921
vt 0.264966 0.860411
vt 0.395150 0.812899
vt 0.395150 0.652465
vn -1.0000 0.0000 0.0000
vn 0.0000 0.0000 -1.0000
vn 1.0000 0.0000 0.0000
vn 0.0000 0.0000 1.0000
vn 0.0000 -1.0000 0.0000
vn -0.8140 0.5809 0.0000
vn 0.0000 1.0000 0.0000
vn 0.0000 0.6400 0.7683
vn 0.0000 0.6400 -0.7683
vn 0.8140 0.5809 0.0000
s off
f 50/125/11 51/126/11 49/127/11
f 52/128/12 55/129/12 51/130/12
f 56/131/13 53/132/13 55/133/13
f 54/134/14 49/135/14 53/136/14
f 55/137/15 49/138/15 51/139/15
f 50/125/16 58/140/16 52/141/16
f 58/142/17 60/143/17 59/144/17
f 54/134/18 57/145/18 50/146/18
f 52/128/19 59/147/19 56/148/19
f 56/131/20 60/149/20 54/150/20
f 50/125/11 52/141/11 51/126/11
f 52/128/12 56/148/12 55/129/12
f 56/131/13 54/150/13 53/132/13
f 54/134/14 50/146/14 49/135/14
f 55/137/15 53/151/15 49/138/15
f 50/125/16 57/152/16 58/140/16
f 58/142/17 57/153/17 60/143/17
f 54/134/18 60/154/18 57/145/18
f 52/128/19 58/155/19 59/147/19
f 56/131/20 59/156/20 60/149/20
o Cylinder
v 0.499931 1.409737 -0.069531
v 2.570711 1.409737 -0.069531
v 0.499931 1.393639 -0.067945
v 2.570711 1.393640 -0.067945
v 0.499931 1.378161 -0.063250
v 2.570711 1.378161 -0.063250
v 0.499931 1.363895 -0.055625
v 2.570711 1.363895 -0.055625
v 0.499931 1.351392 -0.045364
v 2.570711 1.351392 -0.045364
v 0.499931 1.341130 -0.032860
v 2.570711 1.341130 -0.032860
v 0.499931 1.333505 -0.018595
v 2.570711 1.333505 -0.018595
v 0.499931 1.328810 -0.003116
v 2.570711 1.328810 -0.003116
v 0.499931 1.327224 0.012982
v 2.570711 1.327224 0.012982
v 0.499931 1.328810 0.029079
v 2.570711 1.328810 0.029079
v 0.499931 1.333505 0.044558
v 2.570711 1.333505 0.044558
v 0.499931 1.341130 0.058823
v 2.570711 1.341130 0.058823
v 0.499931 1.351392 0.071327
v 2.570711 1.351392 0.071327
v 0.499931 1.363895 0.081588
v 2.570711 1.363895 0.081588
v 0.499931 1.378161 0.089213
v 2.570711 1.378161 0.089213
v 0.499931 1.393639 0.093909
v 2.570711 1.393640 0.093909
v 0.499931 1.409737 0.095494
v 2.570711 1.409737 0.095494
v 0.499931 1.425834 0.093909
v 2.570711 1.425834 0.093909
v 0.499931 1.441313 0.089213
v 2.570711 1.441313 0.089213
v 0.499931 1.455578 0.081588
v 2.570711 1.455578 0.081588
v 0.499931 1.468082 0.071327
v 2.570711 1.468082 0.071327
v 0.499931 1.478343 0.058823
v 2.570711 1.478344 0.058823
v 0.499931 1.485968 0.044558
v 2.570711 1.485969 0.044558
v 0.499931 1.490664 0.029079
v 2.570711 1.490664 0.029079
v 0.499931 1.492249 0.012982
v 2.570711 1.492249 0.012982
v 0.499931 1.490664 -0.003116
v 2.570711 1.490664 -0.003116
v 0.499931 1.485968 -0.018595
v 2.570711 1.485969 -0.018595
v 0.499931 1.478343 -0.032860
v 2.570711 1.478344 -0.032860
v 0.499931 1.468082 -0.045364
v 2.570711 1.468082 -0.045364
v 0.499931 1.455578 -0.055625
v 2.570711 1.455578 -0.055625
v 0.499931 1.441313 -0.063250
v 2.570711 1.441313 -0.063250
v 0.499931 1.425834 -0.067945
v 2.570711 1.425834 -0.067945
vt 0.875290 0.015230
vt 0.857124 0.204201
vt 0.857124 0.015230
vt 0.840011 0.015230
vt 0.840011 0.204201
vt 0.824610 0.015230
vt 0.811513 0.393172
vt 0.798416 0.204201
vt 0.811513 0.204201
vt 0.798416 0.393172
vt 0.783015 0.204201
vt 0.783015 0.393172
vt 0.765903 0.204201
vt 0.765903 0.393172
vt 0.747736 0.204201
vt 0.747736 0.393172
vt 0.729214 0.204201
vt 0.729214 0.393172
vt 0.711047 0.204201
vt 0.711047 0.393172
vt 0.693935 0.204201
vt 0.693935 0.393172
vt 0.678534 0.204201
vt 0.944493 0.393172
vt 0.929092 0.204201
vt 0.944493 0.204201
vt 0.929092 0.393172
vt 0.911979 0.204201
vt 0.911979 0.393172
vt 0.893813 0.204201
vt 0.893813 0.393172
vt 0.875290 0.204201
vt 0.857124 0.393172
vt 0.857124 0.204201
vt 0.840011 0.204201
vt 0.840011 0.393172
vt 0.824611 0.204201
vt 0.824611 0.393172
vt 0.811513 0.204201
vt 0.824610 0.204201
vt 0.811513 0.015230
vt 0.824611 0.015230
vt 0.811513 0.204201
vt 0.796113 0.015230
vt 0.796113 0.204201
vt 0.779000 0.015230
vt 0.760834 0.204201
vt 0.760834 0.015230
vt 0.742311 0.015230
vt 0.742311 0.204201
vt 0.724145 0.015230
vt 0.724145 0.204201
vt 0.707032 0.015230
vt 0.707032 0.204201
vt 0.691631 0.015230
vt 0.691631 0.204201
vt 0.678534 0.015230
vt 0.944492 0.204201
vt 0.929092 0.015230
vt 0.944493 0.015230
vt 0.929092 0.204201
vt 0.911979 0.015230
vt 0.524562 0.036222
vt 0.657542 0.049320
vt 0.644444 0.182299
vt 0.911979 0.204201
vt 0.893813 0.015230
vt 0.893813 0.204201
vt 0.539963 0.213993
vt 0.667832 0.252782
vt 0.629044 0.380650
vt 0.875290 0.204201
vt 0.824610 0.204201
vt 0.678534 0.393172
vt 0.875290 0.393172
vt 0.811513 0.393172
vt 0.779000 0.204201
vt 0.678534 0.204201
vt 0.511465 0.169202
vt 0.501175 0.153801
vt 0.494087 0.136688
vt 0.490473 0.118522
vt 0.490473 0.099999
vt 0.494087 0.081833
vt 0.501175 0.064720
vt 0.511465 0.049320
vt 0.539963 0.025932
vt 0.557076 0.018844
vt 0.575242 0.015230
vt 0.593765 0.015230
vt 0.611931 0.018844
vt 0.629044 0.025932
vt 0.644444 0.036222
vt 0.667832 0.064720
vt 0.674920 0.081833
vt 0.678534 0.099999
vt 0.678534 0.118522
vt 0.674920 0.136688
vt 0.667832 0.153801
vt 0.657542 0.169202
vt 0.629044 0.192589
vt 0.575242 0.203291
vt 0.611931 0.199678
vt 0.593765 0.203291
vt 0.557076 0.199678
vt 0.539963 0.192589
vt 0.524562 0.182299
vt 0.501175 0.341862
vt 0.494087 0.324749
vt 0.490473 0.306583
vt 0.490473 0.288061
vt 0.494087 0.269894
vt 0.501175 0.252782
vt 0.511465 0.237381
vt 0.524562 0.224283
vt 0.557076 0.206905
vt 0.575242 0.203291
vt 0.593765 0.203291
vt 0.611931 0.206905
vt 0.629044 0.213993
vt 0.644444 0.224283
vt 0.657542 0.237381
vt 0.674920 0.269894
vt 0.678534 0.288060
vt 0.678534 0.306583
vt 0.674920 0.324749
vt 0.667832 0.341862
vt 0.657542 0.357263
vt 0.644444 0.370360
vt 0.611931 0.387739
vt 0.593765 0.391352
vt 0.575242 0.391352
vt 0.557076 0.387739
vt 0.539963 0.380650
vt 0.524562 0.370360
vt 0.511465 0.357263
vn 0.0000 -0.0980 -0.9952
vn 0.0000 -0.2903 -0.9569
vn 0.0000 -0.4714 -0.8819
vn 0.0000 -0.6344 -0.7730
vn 0.0000 -0.7730 -0.6344
vn 0.0000 -0.8819 -0.4714
vn 0.0000 -0.9569 -0.2903
vn 0.0000 -0.9952 -0.0980
vn 0.0000 -0.9952 0.0980
vn 0.0000 -0.9569 0.2903
vn 0.0000 -0.8819 0.4714
vn 0.0000 -0.7730 0.6344
vn 0.0000 -0.6344 0.7730
vn 0.0000 -0.4714 0.8819
vn 0.0000 -0.2903 0.9569
vn 0.0000 -0.0980 0.9952
vn -0.0000 0.0980 0.9952
vn -0.0000 0.2903 0.9569
vn -0.0000 0.4714 0.8819
vn -0.0000 0.6344 0.7730
vn -0.0000 0.7730 0.6344
vn -0.0000 0.8819 0.4714
vn -0.0000 0.9569 0.2903
vn -0.0000 0.9952 0.0980
vn -0.0000 0.9952 -0.0980
vn -0.0000 0.9569 -0.2903
vn -0.0000 0.8819 -0.4714
vn -0.0000 0.7730 -0.6344
vn -0.0000 0.6344 -0.7730
vn -0.0000 0.4714 -0.8819
vn 1.0000 0.0000 0.0000
vn -0.0000 0.2903 -0.9569
vn -0.0000 0.0980 -0.9952
vn -1.0000 0.0000 0.0000
vn 1.0000 0.0001 0.0000
vn 1.0000 0.0003 0.0000
vn 1.0000 -0.0001 0.0000
s off
f 61/157/21 64/158/21 63/159/21
f 64/158/22 65/160/22 63/159/22
f 66/161/23 67/162/23 65/160/23
f 68/163/24 69/164/24 67/165/24
f 70/166/25 71/167/25 69/164/25
f 72/168/26 73/169/26 71/167/26
f 74/170/27 75/171/27 73/169/27
f 76/172/28 77/173/28 75/171/28
f 78/174/29 79/175/29 77/173/29
f 80/176/30 81/177/30 79/175/30
f 82/178/31 83/179/31 81/177/31
f 84/180/32 85/181/32 83/182/32
f 86/183/33 87/184/33 85/181/33
f 88/185/34 89/186/34 87/184/34
f 90/187/35 91/188/35 89/186/35
f 91/188/36 94/189/36 93/190/36
f 94/189/37 95/191/37 93/190/37
f 96/192/38 97/193/38 95/191/38
f 98/194/39 99/195/39 97/193/39
f 100/196/40 101/197/40 99/198/40
f 102/199/41 103/200/41 101/197/41
f 104/201/42 105/202/42 103/200/42
f 105/202/43 108/203/43 107/204/43
f 108/203/44 109/205/44 107/204/44
f 110/206/45 111/207/45 109/205/45
f 112/208/46 113/209/46 111/207/46
f 114/210/47 115/211/47 113/209/47
f 116/212/48 117/213/48 115/211/48
f 118/214/49 119/215/49 117/216/49
f 120/217/50 121/218/50 119/215/50
f 114/219/51 98/220/51 82/221/51
f 122/222/52 123/223/52 121/218/52
f 124/224/53 61/157/53 123/223/53
f 75/225/54 91/226/54 107/227/54
f 61/157/21 62/228/21 64/158/21
f 64/158/22 66/161/22 65/160/22
f 66/161/23 68/229/23 67/162/23
f 68/163/24 70/166/24 69/164/24
f 70/166/25 72/168/25 71/167/25
f 72/168/26 74/170/26 73/169/26
f 74/170/27 76/172/27 75/171/27
f 76/172/28 78/174/28 77/173/28
f 78/174/29 80/176/29 79/175/29
f 80/176/30 82/178/30 81/177/30
f 82/178/31 84/230/31 83/179/31
f 84/180/32 86/183/32 85/181/32
f 86/183/33 88/185/33 87/184/33
f 88/185/34 90/187/34 89/186/34
f 90/187/35 92/231/35 91/188/35
f 91/188/36 92/231/36 94/189/36
f 94/189/37 96/192/37 95/191/37
f 96/192/38 98/194/38 97/193/38
f 98/194/39 100/232/39 99/195/39
f 100/196/40 102/199/40 101/197/40
f 102/199/41 104/201/41 103/200/41
f 104/201/42 106/233/42 105/202/42
f 105/202/43 106/233/43 108/203/43
f 108/203/44 110/206/44 109/205/44
f 110/206/45 112/208/45 111/207/45
f 112/208/46 114/210/46 113/209/46
f 114/210/47 116/212/47 115/211/47
f 116/212/48 118/234/48 117/213/48
f 118/214/49 120/217/49 119/215/49
f 120/217/50 122/222/50 121/218/50
f 66/235/51 64/236/51 62/237/51
f 62/237/51 124/238/51 122/239/51
f 122/239/51 120/240/51 118/241/51
f 118/241/55 116/242/55 122/239/55
f 116/242/51 114/219/51 122/239/51
f 114/219/56 112/243/56 110/244/56
f 110/244/57 108/245/57 114/219/57
f 108/245/51 106/246/51 114/219/51
f 106/246/51 104/247/51 102/248/51
f 102/248/51 100/249/51 106/246/51
f 100/249/51 98/220/51 106/246/51
f 98/220/51 96/250/51 94/251/51
f 94/251/51 92/252/51 98/220/51
f 92/252/51 90/253/51 98/220/51
f 90/253/51 88/254/51 86/255/51
f 86/255/51 84/256/51 82/221/51
f 82/221/51 80/257/51 74/258/51
f 80/257/57 78/259/57 74/258/57
f 78/259/51 76/260/51 74/258/51
f 74/258/55 72/261/55 70/262/55
f 70/262/55 68/263/55 66/235/55
f 66/235/51 62/237/51 114/219/51
f 62/237/51 122/239/51 114/219/51
f 90/253/51 86/255/51 98/220/51
f 86/255/51 82/221/51 98/220/51
f 74/258/51 70/262/51 82/221/51
f 70/262/51 66/235/51 82/221/51
f 114/219/51 106/246/51 98/220/51
f 66/235/51 114/219/51 82/221/51
f 122/222/52 124/224/52 123/223/52
f 124/224/53 62/228/53 61/157/53
f 123/264/54 61/265/54 63/266/54
f 63/266/54 65/267/54 67/268/54
f 67/268/54 69/269/54 71/270/54
f 71/270/54 73/271/54 75/225/54
f 75/225/54 77/272/54 79/273/54
f 79/273/54 81/274/54 83/275/54
f 83/275/54 85/276/54 87/277/54
f 87/277/54 89/278/54 91/226/54
f 91/226/54 93/279/54 95/280/54
f 95/280/54 97/281/54 99/282/54
f 99/282/54 101/283/54 107/227/54
f 101/283/54 103/284/54 107/227/54
f 103/284/54 105/285/54 107/227/54
f 107/227/54 109/286/54 111/287/54
f 111/287/54 113/288/54 115/289/54
f 115/289/54 117/290/54 123/264/54
f 117/290/54 119/291/54 123/264/54
f 119/291/54 121/292/54 123/264/54
f 123/264/54 63/266/54 75/225/54
f 63/266/54 67/268/54 75/225/54
f 67/268/54 71/270/54 75/225/54
f 75/225/54 79/273/54 91/226/54
f 79/273/54 83/275/54 91/226/54
f 83/275/54 87/277/54 91/226/54
f 91/226/54 95/280/54 99/282/54
f 107/227/54 111/287/54 123/264/54
f 111/287/54 115/289/54 123/264/54
f 91/226/54 99/282/54 107/227/54
f 123/264/54 75/225/54 107/227/54
