# Blender v3.1.2 OBJ File: 'tankv1.blend'
# www.blender.org
o Cube
v 0.918250 1.190177 -1.000000
v 1.384760 0.000000 -1.000000
v 0.918250 1.190177 1.000000
v 1.384760 0.000000 1.000000
v -0.891559 1.190177 -1.000000
v -1.453716 0.000000 -1.000000
v -0.891559 1.190177 1.000000
v -1.453716 0.000000 1.000000
v -1.453716 0.000000 0.000000
v 0.918250 1.190177 0.000000
v -0.891559 1.190177 0.000000
v 1.384760 0.000000 0.000000
v 1.646284 0.606785 -1.000000
v -1.678888 0.694102 1.000000
v 1.646284 0.606785 1.000000
v -1.678888 0.694102 -1.000000
v 1.646284 0.606785 0.000000
v -1.678888 0.694102 0.000000
v 1.384760 0.000000 -1.000000
v 0.918250 1.190177 1.000000
v 1.384760 0.000000 1.000000
v 0.918250 1.190177 -1.000000
v 1.384760 0.000000 0.000000
v 0.918250 1.190177 0.000000
v 1.140058 1.011651 -1.000000
v 1.136475 1.011651 1.000000
v -1.453716 0.000000 -1.000000
v -0.891559 1.190177 1.000000
v -1.453716 0.000000 0.000000
v -1.176511 1.011651 1.000000
v -1.453716 0.000000 1.000000
v -0.891559 1.190177 -1.000000
v -0.891559 1.190177 0.000000
v -1.173742 1.011651 -1.000000
v -1.550024 0.203926 -0.995516
v -1.550024 0.708357 -0.995516
v -1.550024 0.203926 -1.210652
v -1.550024 0.708357 -1.210652
v 1.440329 0.203926 -0.995516
v 1.440329 0.708357 -0.995516
v 1.440329 0.203926 -1.210652
v 1.440329 0.708357 -1.210652
v -0.891801 0.087267 -1.210652
v -0.891801 1.090305 -1.210652
v -0.891801 0.076405 -0.995516
v -0.891801 1.090305 -0.995516
v 0.913643 1.069081 -1.210652
v 0.913643 0.055181 -0.995516
v 0.913643 0.088970 -1.210652
v 0.913643 1.069081 -0.995516
v -1.560186 0.217584 1.208997
v -1.560186 0.722015 1.208997
v -1.560186 0.217584 0.993861
v -1.560186 0.722015 0.993861
v 1.430166 0.217584 1.208997
v 1.430166 0.722015 1.208997
v 1.430166 0.217584 0.993861
v 1.430166 0.722015 0.993861
v -0.901964 0.100926 0.993861
v -0.901964 1.103963 0.993861
v -0.901964 0.090063 1.208997
v -0.901964 1.103963 1.208997
v 0.903481 1.082739 0.993861
v 0.903481 0.068839 1.208997
v 0.903481 0.102628 0.993861
v 0.903481 1.082739 1.208997
v 1.646284 0.163338 -1.000000
v 1.646284 0.163338 1.000000
v -1.678888 0.186843 -1.000000
v 1.646284 0.163338 0.000000
v -1.678888 0.186843 0.000000
v -1.678888 0.186843 1.000000
v 1.317925 0.272323 1.000000
v 1.318889 0.272323 -1.000000
v -1.378351 0.272323 -1.000000
v -1.379096 0.272323 1.000000
v -0.034478 0.000000 1.000000
v 0.013346 1.190177 -1.000000
v 0.013346 1.190177 0.000000
v -0.016842 1.011651 -1.000000
v -0.034478 0.000000 -1.000000
v 0.013346 1.190177 1.000000
v -0.034478 0.000000 0.000000
v -0.020018 1.011651 1.000000
v -0.030586 0.272323 1.000000
v -0.029731 0.272323 -1.000000
vt 0.669442 0.126699
vt 0.669442 0.000000
vt 0.669442 0.000000
vt 0.587500 0.983071
vt 0.625000 0.940805
vt 0.520798 1.000000
vt 0.669442 0.126699
vt 0.520798 0.250000
vt 0.520798 0.125000
vt 0.355338 0.625000
vt 0.365169 0.759831
vt 0.355338 0.750000
vt 0.679737 0.625000
vt 0.502457 0.750000
vt 0.502457 0.625000
vt 0.587500 0.480338
vt 0.652644 0.459741
vt 0.502457 0.500000
vt 0.355338 0.500000
vt 0.355338 0.625000
vt 0.520798 0.000000
vt 0.625000 0.309195
vt 0.414247 0.125000
vt 0.414247 0.000000
vt 0.409310 0.625000
vt 0.409310 0.500000
vt 0.432202 0.480338
vt 0.409310 0.750000
vt 0.414247 0.250000
vt 0.432202 0.983071
vt 0.414247 1.000000
vt 0.432202 0.769662
vt 0.432202 0.373633
vt 0.679737 0.625000
vt 0.248633 0.625000
vt 0.248633 0.500000
vt 0.587500 0.373633
vt 0.625000 0.445263
vt 0.248633 0.750000
vt 0.625000 0.804737
vt 0.587500 0.769662
vt 0.697392 0.766825
vt 0.652644 0.790259
vt 0.141929 0.625000
vt 0.141929 0.750000
vt 0.141929 0.750000
vt 0.587500 0.266929
vt 0.141929 0.500000
vt 0.141929 0.625000
vt 0.432202 0.266929
vt 0.432202 0.876366
vt 0.815805 0.500000
vt 0.747771 0.625000
vt 0.747771 0.500000
vt 0.587500 0.876366
vt 0.625000 0.940805
vt 0.815805 0.625000
vt 0.747771 0.750000
vt 0.625000 0.000000
vt 0.375000 0.250000
vt 0.375000 0.000000
vt 0.375000 0.458578
vt 0.625000 0.500000
vt 0.375000 0.500000
vt 0.375000 0.750000
vt 0.375000 0.941782
vt 0.625000 1.000000
vt 0.375000 1.000000
vt 0.333578 0.500000
vt 0.333578 0.750000
vt 0.875000 0.500000
vt 0.816782 0.750000
vt 0.816782 0.500000
vt 0.666422 0.750000
vt 0.666422 0.500000
vt 0.183218 0.500000
vt 0.125000 0.750000
vt 0.125000 0.500000
vt 0.625000 0.791422
vt 0.375000 0.791422
vt 0.625000 0.250000
vt 0.375000 0.308218
vt 0.625000 0.750000
vt 0.183218 0.750000
vt 0.625000 0.458578
vt 0.625000 0.000000
vt 0.375000 0.250000
vt 0.375000 0.000000
vt 0.375000 0.458578
vt 0.625000 0.500000
vt 0.375000 0.500000
vt 0.375000 0.750000
vt 0.375000 0.941782
vt 0.625000 1.000000
vt 0.375000 1.000000
vt 0.333578 0.500000
vt 0.333578 0.750000
vt 0.875000 0.500000
vt 0.816782 0.750000
vt 0.816782 0.500000
vt 0.666422 0.750000
vt 0.666422 0.500000
vt 0.183218 0.500000
vt 0.125000 0.750000
vt 0.125000 0.500000
vt 0.625000 0.791422
vt 0.375000 0.791422
vt 0.625000 0.250000
vt 0.375000 0.308218
vt 0.625000 0.750000
vt 0.183218 0.750000
vt 0.625000 0.458578
vt 0.375000 0.876367
vt 0.375000 0.983071
vt 0.375000 0.266929
vt 0.375000 0.266929
vt 0.375000 0.373633
vt 0.375000 0.480338
vt 0.375000 0.769662
vt 0.375000 0.983071
vt 0.375000 0.125000
vt 0.365169 0.490169
vt 0.375000 0.000000
vt 0.679737 0.750000
vt 0.679737 0.500000
vt 0.141929 0.500000
vt 0.625000 0.309195
vt 0.697392 0.483175
vt 0.625000 0.377229
vt 0.625000 0.872771
vt 0.815805 0.750000
vt 0.625000 0.941782
vt 0.875000 0.750000
vt 0.625000 0.308218
vt 0.625000 0.941782
vt 0.875000 0.750000
vt 0.625000 0.308218
vn 0.0000 0.0000 1.0000
vn 0.0000 0.0000 -1.0000
vn -0.5331 0.8461 0.0000
vn 0.6253 0.7804 0.0000
vn -1.0000 0.0000 0.0000
vn 1.0000 0.0000 0.0000
vn 0.0000 -1.0000 0.0000
vn 0.0000 1.0000 0.0000
vn 0.2687 -0.9515 -0.1494
vn -0.5019 0.8649 -0.0000
vn 0.0118 0.9999 0.0000
vn -0.1745 -0.9847 0.0000
vn 0.5651 0.8250 0.0000
vn 0.0009 -0.9987 -0.0504
vn -0.6386 -0.7696 0.0000
vn 0.5297 -0.8482 0.0000
vn 0.2132 -0.9770 0.0000
vn -0.1900 -0.9805 -0.0495
vn -0.0116 -0.9878 -0.1551
s off
f 33/1/1 7/2/1 28/3/1
f 30/4/2 7/5/2 14/6/2
f 11/7/3 16/8/3 18/9/3
f 23/10/1 4/11/1 21/12/1
f 10/13/4 15/14/4 17/15/4
f 25/16/2 1/17/2 13/18/2
f 1/17/4 17/15/4 13/18/4
f 19/19/1 12/20/1 23/10/1
f 7/2/3 18/9/3 14/21/3
f 32/22/1 11/7/1 33/1/1
f 14/21/5 71/23/5 72/24/5
f 13/18/6 70/25/6 67/26/6
f 74/27/2 13/18/2 67/26/2
f 17/15/6 68/28/6 70/25/6
f 18/9/5 69/29/5 71/23/5
f 76/30/1 14/6/1 72/31/1
f 15/14/1 73/32/1 68/28/1
f 86/33/2 25/16/2 74/27/2
f 1/17/1 24/34/1 10/13/1
f 19/19/7 83/35/7 81/36/7
f 80/37/2 22/38/2 25/16/2
f 23/10/7 77/39/7 83/35/7
f 15/14/1 20/40/1 26/41/1
f 10/13/1 20/42/1 3/43/1
f 9/44/1 31/45/1 8/46/1
f 16/8/2 32/22/2 34/47/2
f 6/48/1 29/49/1 9/44/1
f 16/8/2 75/50/2 69/29/2
f 85/51/1 30/4/1 76/30/1
f 32/52/8 79/53/8 78/54/8
f 84/55/1 28/56/1 30/4/1
f 33/57/8 82/58/8 79/53/8
f 36/59/5 37/60/5 35/61/5
f 49/62/2 42/63/2 41/64/2
f 42/63/6 39/65/6 41/64/6
f 45/66/1 36/67/1 35/68/1
f 49/69/9 39/65/9 48/70/9
f 38/71/10 46/72/10 44/73/10
f 44/73/11 50/74/11 47/75/11
f 43/76/12 35/77/12 37/78/12
f 50/79/1 45/66/1 48/80/1
f 38/81/2 43/82/2 37/60/2
f 40/83/1 48/80/1 39/65/1
f 47/75/13 40/83/13 42/63/13
f 49/69/14 45/84/14 43/76/14
f 43/82/2 47/85/2 49/62/2
f 52/86/5 53/87/5 51/88/5
f 65/89/2 58/90/2 57/91/2
f 58/90/6 55/92/6 57/91/6
f 61/93/1 52/94/1 51/95/1
f 65/96/9 55/92/9 64/97/9
f 54/98/10 62/99/10 60/100/10
f 60/100/11 66/101/11 63/102/11
f 59/103/12 51/104/12 53/105/12
f 66/106/1 61/93/1 64/107/1
f 54/108/2 59/109/2 53/87/2
f 56/110/1 64/107/1 55/92/1
f 63/102/13 56/110/13 58/90/13
f 65/96/14 61/111/14 59/103/14
f 59/109/2 63/112/2 65/89/2
f 77/113/1 76/30/1 31/114/1
f 6/115/1 75/50/1 27/116/1
f 81/117/2 74/27/2 19/118/2
f 4/11/1 73/32/1 21/119/1
f 31/114/1 72/31/1 8/120/1
f 71/23/15 6/115/15 9/121/15
f 70/25/16 4/11/16 12/20/16
f 19/118/1 67/26/1 2/122/1
f 67/26/16 12/20/16 2/122/16
f 72/24/15 9/121/15 8/123/15
f 75/50/2 81/117/2 27/116/2
f 73/32/1 77/113/1 21/119/1
f 79/53/8 20/124/8 24/34/8
f 20/40/1 84/55/1 26/41/1
f 78/54/8 24/34/8 22/125/8
f 26/41/1 85/51/1 73/32/1
f 83/35/7 31/45/7 29/49/7
f 32/22/2 80/37/2 34/47/2
f 81/36/7 29/49/7 27/126/7
f 34/47/2 86/33/2 75/50/2
f 33/1/1 11/7/1 7/2/1
f 30/4/1 28/56/1 7/5/1
f 11/7/3 5/127/3 16/8/3
f 23/10/1 12/20/1 4/11/1
f 10/13/4 3/43/4 15/14/4
f 25/16/1 22/38/1 1/17/1
f 1/17/4 10/13/4 17/15/4
f 19/19/1 2/122/1 12/20/1
f 7/2/3 11/7/3 18/9/3
f 32/22/1 5/127/1 11/7/1
f 14/21/5 18/9/5 71/23/5
f 13/18/6 17/15/6 70/25/6
f 74/27/2 25/16/2 13/18/2
f 17/15/6 15/14/6 68/28/6
f 18/9/5 16/8/5 69/29/5
f 76/30/1 30/4/1 14/6/1
f 15/14/1 26/41/1 73/32/1
f 86/33/2 80/37/2 25/16/2
f 1/17/1 22/128/1 24/34/1
f 19/19/7 23/10/7 83/35/7
f 80/37/2 78/129/2 22/38/2
f 23/10/7 21/12/7 77/39/7
f 15/14/1 3/43/1 20/40/1
f 10/13/1 24/34/1 20/42/1
f 9/44/1 29/49/1 31/45/1
f 16/8/1 5/127/1 32/22/1
f 6/48/1 27/126/1 29/49/1
f 16/8/2 34/47/2 75/50/2
f 85/51/1 84/55/1 30/4/1
f 32/52/8 33/57/8 79/53/8
f 84/55/1 82/130/1 28/56/1
f 33/57/8 28/131/8 82/58/8
f 36/59/5 38/81/5 37/60/5
f 49/62/2 47/85/2 42/63/2
f 42/63/6 40/83/6 39/65/6
f 45/66/1 46/132/1 36/67/1
f 49/69/17 41/64/17 39/65/17
f 38/71/10 36/133/10 46/72/10
f 44/73/11 46/72/11 50/74/11
f 43/76/18 45/84/18 35/77/18
f 50/79/1 46/132/1 45/66/1
f 38/81/2 44/134/2 43/82/2
f 40/83/1 50/79/1 48/80/1
f 47/75/13 50/74/13 40/83/13
f 49/69/19 48/70/19 45/84/19
f 43/82/2 44/134/2 47/85/2
f 52/86/5 54/108/5 53/87/5
f 65/89/2 63/112/2 58/90/2
f 58/90/6 56/110/6 55/92/6
f 61/93/1 62/135/1 52/94/1
f 65/96/17 57/91/17 55/92/17
f 54/98/10 52/136/10 62/99/10
f 60/100/11 62/99/11 66/101/11
f 59/103/18 61/111/18 51/104/18
f 66/106/1 62/135/1 61/93/1
f 54/108/2 60/137/2 59/109/2
f 56/110/1 66/106/1 64/107/1
f 63/102/13 66/101/13 56/110/13
f 65/96/19 64/97/19 61/111/19
f 59/109/2 60/137/2 63/112/2
f 77/113/1 85/51/1 76/30/1
f 6/115/2 69/29/2 75/50/2
f 81/117/2 86/33/2 74/27/2
f 4/11/1 68/28/1 73/32/1
f 31/114/1 76/30/1 72/31/1
f 71/23/15 69/29/15 6/115/15
f 70/25/16 68/28/16 4/11/16
f 19/118/2 74/27/2 67/26/2
f 67/26/16 70/25/16 12/20/16
f 72/24/15 71/23/15 9/121/15
f 75/50/2 86/33/2 81/117/2
f 73/32/1 85/51/1 77/113/1
f 79/53/8 82/58/8 20/124/8
f 20/40/1 82/130/1 84/55/1
f 78/54/8 79/53/8 24/34/8
f 26/41/1 84/55/1 85/51/1
f 83/35/7 77/39/7 31/45/7
f 32/22/2 78/129/2 80/37/2
f 81/36/7 83/35/7 29/49/7
f 34/47/2 80/37/2 86/33/2
